<svg width="70" height="70" viewBox="0 0 70 70" fill="none" xmlns="http://www.w3.org/2000/svg">
<g id="Frame" clip-path="url(#clip0_8_659)">
<g id="Group">
<g id="Group_2">
<path id="Vector" d="M34.9999 68.75C53.6395 68.75 68.7499 53.6396 68.7499 35C68.7499 16.3604 53.6395 1.25 34.9999 1.25C16.3603 1.25 1.24994 16.3604 1.24994 35C1.24994 53.6396 16.3603 68.75 34.9999 68.75Z" fill="#8DC63F"/>
<path id="Vector_2" d="M34.9999 70C15.6249 70 -6.10352e-05 54.375 -6.10352e-05 35C-6.10352e-05 15.625 15.6249 0 34.9999 0C54.3749 0 69.9999 15.625 69.9999 35C69.9999 54.375 54.3749 70 34.9999 70ZM34.9999 2.5C16.8749 2.5 2.49994 16.875 2.49994 35C2.49994 53.125 16.8749 67.5 34.9999 67.5C53.1249 67.5 67.4999 53.125 67.4999 35C67.4999 16.875 53.1249 2.5 34.9999 2.5Z" fill="#231F20"/>
</g>
<g id="Group_3">
<path id="Vector_3" d="M61.2499 35C61.2499 49.375 49.3749 60.625 35.6249 60.625C21.2499 60.625 9.99994 48.75 9.99994 35C9.99994 21.25 21.8749 9.375 35.6249 9.375C49.3749 9.375 61.2499 20.625 61.2499 35Z" fill="#F1F2F2"/>
<path id="Vector_4" d="M34.9999 61.875C19.9999 61.875 8.12494 50 8.12494 35C8.12494 20 19.9999 8.125 34.9999 8.125C49.9999 8.125 61.8749 20 61.8749 35C61.8749 50 49.9999 61.875 34.9999 61.875ZM34.9999 10.625C21.2499 10.625 9.99994 21.875 9.99994 35.625C9.99994 49.375 21.2499 60.625 34.9999 60.625C48.7499 60.625 59.9999 49.375 59.9999 35.625C59.9999 21.875 48.7499 10.625 34.9999 10.625Z" fill="#231F20"/>
</g>
<g id="Group_4">
<path id="Vector_5" d="M52.4999 43.125L34.9999 35V22.5L52.4999 43.125Z" fill="#F1F2F2"/>
<path id="Vector_6" d="M52.4999 44.375L34.3749 36.25C33.7499 36.25 33.7499 35.625 33.7499 35V22.5C33.7499 21.875 34.3749 21.25 34.9999 21.25C35.6249 21.25 36.2499 21.875 36.2499 22.5V34.375L53.1249 41.875C53.7499 41.875 53.7499 43.125 53.7499 43.75C53.7499 43.75 53.1249 44.375 52.4999 44.375Z" fill="#231F20"/>
</g>
</g>
</g>
<defs>
<clipPath id="clip0_8_659">
<rect width="70" height="70" fill="white"/>
</clipPath>
</defs>
</svg>
