<svg width="48" height="70" viewBox="0 0 48 70" fill="none" xmlns="http://www.w3.org/2000/svg">
<g id="Frame" clip-path="url(#clip0_8_629)">
<g id="Group">
<g id="Group_2">
<path id="Vector" d="M1.69116 22.8846C1.69116 10.7692 11.3676 1.34616 23.8088 1.34616C36.25 1.34616 45.9265 10.7692 45.9265 22.8846C45.9265 26.9231 45.2353 30.2885 43.1618 32.9808L37.6323 41.7308L35.5588 54.5192H23.8088H12.0588L9.98528 41.7308L4.45587 32.9808C2.38234 30.2885 1.69116 26.25 1.69116 22.8846Z" fill="#F1F2F2"/>
<path id="Vector_2" d="M35.5588 55.8654H12.0588C11.3677 55.8654 10.6765 55.1923 10.6765 54.5192L8.60296 42.4038L3.07354 33.6538C1.00001 30.2885 0.308838 26.9231 0.308838 22.8846C0.308838 10.0962 10.6765 0 23.8088 0C36.9412 0 47.3088 10.0962 47.3088 22.8846C47.3088 26.9231 45.9265 30.2885 44.5441 33.6538L39.0147 42.4038L36.9412 54.5192C36.9412 55.1923 36.25 55.8654 35.5588 55.8654ZM12.75 53.1731H34.1765L35.5588 41.7308V41.0577L41.7794 32.3077C43.1618 29.6154 44.5441 26.25 44.5441 22.8846C44.5441 11.4423 35.5588 2.69231 23.8088 2.69231C12.0588 2.69231 3.07354 11.4423 3.07354 22.8846C3.07354 26.25 3.76472 29.6154 5.83825 32.3077L11.3677 41.0577C11.3677 41.0577 11.3677 41.0577 11.3677 41.7308L12.75 53.1731Z" fill="#231F20"/>
</g>
<g id="Group_3">
<path id="Vector_3" d="M16.2059 31.6346L23.8088 54.5192L30.0294 31.6346H16.2059Z" fill="#F1F2F2"/>
<path id="Vector_4" d="M23.8088 55.8654C23.1177 55.8654 22.4265 55.1923 22.4265 55.1923L14.8235 32.3077C14.8235 31.6346 14.8235 31.6346 14.8235 30.9615C14.8235 30.9615 15.5147 30.2885 16.2059 30.2885H30.0294C30.7206 30.2885 30.7206 30.2885 31.4118 30.9615C31.4118 30.9615 31.4118 31.6346 31.4118 32.3077L25.1912 55.1923C25.1912 55.8654 24.5 55.8654 23.8088 55.8654ZM18.2794 32.9808L23.8088 49.8077L28.6471 32.9808H18.2794Z" fill="#231F20"/>
</g>
<g id="Group_4">
<path id="Vector_5" d="M35.5588 54.5193H11.3676V68.6539H35.5588V54.5193Z" fill="#8DC63F"/>
<path id="Vector_6" d="M35.5588 70H11.3676C10.6765 70 9.98529 69.3269 9.98529 68.6539V54.5193C9.98529 53.8462 10.6765 53.1731 11.3676 53.1731H35.5588C36.25 53.1731 36.9412 53.8462 36.9412 54.5193V68.6539C36.9412 69.3269 36.25 70 35.5588 70ZM12.75 67.3077H34.1765V55.8654H12.75V67.3077Z" fill="#231F20"/>
</g>
</g>
</g>
<defs>
<clipPath id="clip0_8_629">
<rect width="47" height="70" fill="white" transform="translate(0.308838)"/>
</clipPath>
</defs>
</svg>
