<svg width="68" height="51" viewBox="0 0 68 51" fill="none" xmlns="http://www.w3.org/2000/svg">
<g id="Frame" clip-path="url(#clip0_8_692)">
<g id="Group">
<g id="Group_2">
<g id="Group_3">
<path id="Vector" d="M45.8335 17.3736H65.9335V42.5934H57.5585V44.8352V46.5165V49.8791L55.3251 48.1978L54.7668 47.6374L52.5334 46.5165H51.9751L49.7418 44.8352L47.5085 43.7143L46.9501 43.1538L45.8335 42.5934H21.2668V26.3407L45.8335 17.3736Z" fill="#8DC63F"/>
<path id="Vector_2" d="M57.5585 51H57.0001L45.2751 43.7143H21.2668C20.7084 43.7143 20.1501 43.1538 20.1501 42.5934V26.3407C20.1501 25.7802 20.7084 25.2198 21.2668 25.2198C21.8251 25.2198 22.3834 25.7802 22.3834 26.3407V41.4725H45.8335H46.3918L56.4418 47.6374V42.033C56.4418 41.4725 56.4418 41.4725 57.0001 41.4725L57.5585 40.9121H64.8168V18.4945H45.8335C45.2751 18.4945 44.7168 17.9341 44.7168 17.3736C44.7168 16.8132 45.2751 16.2527 45.8335 16.2527H65.9335C66.4918 16.2527 67.0501 16.8132 67.0501 17.3736V42.5934C67.0501 43.1538 66.4918 43.7143 65.9335 43.7143H58.6751V49.8791C58.6751 49.8791 58.1168 50.4396 57.5585 51Z" fill="#231F20"/>
</g>
</g>
<g id="Group_4">
<path id="Vector_3" d="M1.16678 1.12088V26.3407H9.54178V33.6264L21.2668 26.3407H45.8334V1.12088H1.16678Z" fill="#F1F2F2"/>
<path id="Vector_4" d="M9.54178 34.7472C8.98344 34.7472 8.98344 34.7472 9.54178 34.7472C8.42511 34.1868 8.42511 34.1868 8.42511 33.6264V27.4615H1.16678C0.608443 27.4615 0.0501099 26.9011 0.0501099 26.3407V1.12088C0.0501099 0.56044 0.608443 0 1.16678 0H45.8334C46.3918 0 46.9501 0.56044 46.9501 1.12088V26.3407C46.9501 26.9011 46.3918 27.4615 45.8334 27.4615H21.2668L10.1001 34.1868C9.54178 34.7472 9.54178 34.7472 9.54178 34.7472ZM2.28344 25.2198H9.54178C10.1001 25.2198 10.1001 25.2198 10.1001 25.7802L10.6584 26.3407V31.9451L20.7084 25.7802H21.2668H44.7168V2.24176H2.28344V25.2198Z" fill="#231F20"/>
</g>
</g>
</g>
<defs>
<clipPath id="clip0_8_692">
<rect width="67" height="51" fill="white" transform="translate(0.0501099)"/>
</clipPath>
</defs>
</svg>
