<svg width="67" height="48" viewBox="0 0 67 48" fill="none" xmlns="http://www.w3.org/2000/svg">
<g id="Frame" clip-path="url(#clip0_8_670)">
<g id="Group">
<g id="Group_2">
<path id="Vector" d="M11.3386 22.9565C17.0314 22.9565 21.6463 18.2847 21.6463 12.5218C21.6463 6.75879 17.0314 2.08698 11.3386 2.08698C5.64586 2.08698 1.03095 6.75879 1.03095 12.5218C1.03095 18.2847 5.64586 22.9565 11.3386 22.9565Z" fill="#F1F2F2"/>
<path id="Vector_2" d="M11.3386 24C5.15403 24 0.000183105 18.7826 0.000183105 12.5217C0.000183105 6.26088 5.15403 1.04349 11.3386 1.04349C17.5233 1.04349 22.6771 6.26088 22.6771 12.5217C22.6771 18.7826 17.5233 24 11.3386 24ZM11.3386 3.13044C6.1848 3.13044 2.06172 7.30436 2.06172 12.5217C2.06172 17.7391 6.1848 21.913 11.3386 21.913C16.4925 21.913 20.6156 17.7391 20.6156 12.5217C20.6156 7.30436 16.4925 3.13044 11.3386 3.13044Z" fill="#231F20"/>
</g>
<g id="Group_3">
<path id="Vector_3" d="M22.1617 36.5218H1.03095V33.3913C1.03095 27.6522 5.66941 22.9565 11.3386 22.9565C17.0079 22.9565 21.6463 27.6522 21.6463 33.3913V36.5218H22.1617Z" fill="#F1F2F2"/>
<path id="Vector_4" d="M22.1617 37.5652H1.03095C0.515568 37.5652 0.000183105 37.0435 0.000183105 36.5218V33.3913C0.000183105 27.1304 5.15403 21.9131 11.3386 21.9131C17.5233 21.9131 22.6771 27.1304 22.6771 33.3913V36.5218C23.1925 37.0435 22.6771 37.5652 22.1617 37.5652ZM2.06172 35.4783H21.131V33.3913C21.131 28.1739 17.0079 23.4783 11.3386 23.4783C6.1848 23.4783 1.54634 27.6522 1.54634 33.3913V35.4783H2.06172Z" fill="#231F20"/>
</g>
</g>
<g id="Group_4">
<g id="Group_5">
<path id="Vector_5" d="M55.6617 22.9565C61.3545 22.9565 65.9694 18.2847 65.9694 12.5218C65.9694 6.75879 61.3545 2.08698 55.6617 2.08698C49.9689 2.08698 45.354 6.75879 45.354 12.5218C45.354 18.2847 49.9689 22.9565 55.6617 22.9565Z" fill="#F1F2F2"/>
<path id="Vector_6" d="M55.6617 24C49.4771 24 44.3233 18.7826 44.3233 12.5217C44.3233 6.26088 49.4771 1.04349 55.6617 1.04349C61.8463 1.04349 67.0002 6.26088 67.0002 12.5217C67.0002 18.7826 61.8463 24 55.6617 24ZM55.6617 3.13044C50.5079 3.13044 46.3848 7.30436 46.3848 12.5217C46.3848 17.7391 50.5079 21.913 55.6617 21.913C60.8156 21.913 64.9386 17.7391 64.9386 12.5217C64.9386 7.30436 60.8156 3.13044 55.6617 3.13044Z" fill="#231F20"/>
</g>
<g id="Group_6">
<path id="Vector_7" d="M65.9694 36.5218H44.8386V33.3913C44.8386 27.6522 49.4771 22.9565 55.1463 22.9565C60.8156 22.9565 65.454 27.6522 65.454 33.3913V36.5218H65.9694Z" fill="#F1F2F2"/>
<path id="Vector_8" d="M65.9694 37.5652H44.8386C44.3233 37.5652 43.8079 37.0435 43.8079 36.5218V33.3913C43.8079 27.1304 48.9617 21.9131 55.1463 21.9131C61.331 21.9131 66.4848 27.1304 66.4848 33.3913V36.5218C67.0002 37.0435 66.4848 37.5652 65.9694 37.5652ZM45.8694 35.4783H64.9386V33.3913C64.9386 28.1739 60.8156 23.4783 55.1463 23.4783C49.9925 23.4783 45.354 27.6522 45.354 33.3913V35.4783H45.8694Z" fill="#231F20"/>
</g>
</g>
<g id="Group_7">
<g id="Group_8">
<path id="Vector_9" d="M47.4156 14.6087C47.4156 22.4348 41.231 28.1739 34.0156 28.1739C26.8002 28.1739 20.1002 22.4348 20.1002 14.6087C20.1002 6.78262 25.7694 1.04349 33.5002 1.04349C41.231 1.04349 47.4156 7.30436 47.4156 14.6087Z" fill="#F1F2F2"/>
<path id="Vector_10" d="M33.5002 29.7391C25.254 29.7391 19.0694 22.9565 19.0694 15.1304C19.0694 7.30435 25.254 0 33.5002 0C41.7463 0 47.931 6.78261 47.931 14.6087C47.931 22.4348 41.7463 29.7391 33.5002 29.7391ZM33.5002 2.08696C26.2848 2.08696 20.6156 7.82609 20.6156 15.1304C20.6156 22.4348 26.2848 28.1739 33.5002 28.1739C40.7156 27.6522 46.3848 21.913 46.3848 14.6087C46.3848 7.82609 40.7156 2.08696 33.5002 2.08696Z" fill="#231F20"/>
</g>
<g id="Group_9">
<path id="Vector_11" d="M47.4156 46.9565H19.5848V42.7826C19.5848 34.9565 25.7694 28.6956 33.5002 28.6956C41.231 28.6956 47.4156 34.9565 47.4156 42.7826V46.9565Z" fill="#8DC63F"/>
<path id="Vector_12" d="M47.4156 48H19.5848C19.0694 48 18.554 47.4782 18.554 46.9565V42.7826C18.554 34.4348 25.254 27.6522 33.5002 27.6522C41.7463 27.6522 48.4463 34.4348 48.4463 42.7826V46.9565C48.4463 47.4782 47.931 48 47.4156 48ZM20.6156 45.913H46.3848V42.7826C46.3848 35.4782 40.7156 29.7391 33.5002 29.7391C26.2848 29.7391 20.6156 35.4782 20.6156 42.7826V45.913Z" fill="#231F20"/>
</g>
</g>
</g>
<defs>
<clipPath id="clip0_8_670">
<rect width="67" height="48" fill="white"/>
</clipPath>
</defs>
</svg>
