<svg width="60" height="52" viewBox="0 0 60 52" fill="none" xmlns="http://www.w3.org/2000/svg">
<g id="Frame" clip-path="url(#clip0_8_645)">
<g id="Group">
<g id="Group_2">
<path id="Vector" d="M3.47483 48H21.8194V17H3.47483C2.48323 17 1.49164 18 1.49164 19V46.5C1.49164 47.5 2.48323 48 3.47483 48Z" fill="#8DC63F"/>
<path id="Vector_2" d="M21.8194 49H3.47485C1.49166 49 0.500061 48 0.500061 46.5V19C0.500061 17.5 1.49166 16 3.47485 16H21.8194C22.3152 16 22.811 16.5 22.811 17V48C22.811 48.5 22.3152 49 21.8194 49ZM3.47485 18C2.97905 18 2.48325 18.5 2.48325 19V46.5C2.48325 47 2.97905 47.5 3.47485 47.5H20.8278V18H3.47485Z" fill="#231F20"/>
</g>
<g id="Group_3">
<path id="Vector_3" d="M17.853 51H12.895C10.9118 51 8.92859 49.5 8.92859 47V18C8.92859 16 10.416 14 12.895 14H17.853C19.8362 14 21.8193 15.5 21.8193 18V47C21.8193 49.5 19.8362 51 17.853 51Z" fill="#F1F2F2"/>
<path id="Vector_4" d="M17.853 52H12.895C10.416 52 7.93701 50 7.93701 47V18C7.93701 15.5 9.9202 13 12.895 13H17.853C20.332 13 22.811 15 22.811 18V47C22.811 50 20.332 52 17.853 52ZM12.895 15C11.4076 15 9.9202 16.5 9.9202 18V47C9.9202 48.5 11.4076 50 12.895 50H17.853C19.3404 50 20.8278 48.5 20.8278 47V18C20.8278 16.5 19.3404 15 17.853 15H12.895Z" fill="#231F20"/>
</g>
<g id="Group_4">
<path id="Vector_5" d="M36.6933 20C36.6933 20 45.6177 -3.99999 34.7101 2.00001C34.7101 12 21.3236 20 21.3236 20V46.5H51.0715C52.5589 46.5 54.0463 45.5 54.5421 43.5L58.0127 24.5C58.0127 23.5 58.0127 22.5 57.0211 21.5C57.0211 20.5 56.0295 20 55.0379 20H36.6933Z" fill="#F1F2F2"/>
<path id="Vector_6" d="M51.5673 47H21.8194C21.3236 47 20.8278 46.5 20.8278 46V20C20.8278 19.5 20.8278 19.5 21.3236 19C21.3236 19 34.2143 11.5 34.2143 2.00001C34.2143 1.50001 34.2143 1.50001 34.7101 1.00001C36.6933 1.04941e-05 38.6765 -0.49999 40.1639 0.500011C43.6345 3.50001 40.1639 14.5 38.6765 18.5H55.0379C56.5253 18.5 57.5169 19 58.5085 20C59.5001 21 59.5001 22.5 59.5001 24L56.0295 43C55.5337 45.5 53.5505 47 51.5673 47ZM22.811 45H51.5673C53.0547 45 54.0463 44 54.0463 43L57.5169 24C57.5169 23 57.5169 22.5 57.0211 22C56.5253 21.5 56.0295 21 55.0379 21H36.6933C36.1975 21 36.1975 21 35.7017 20.5C35.7017 20 35.7017 20 35.7017 19.5C38.1807 13.5 40.1639 4.00001 38.1807 2.00001C37.6849 1.50001 36.1975 2.00001 35.2059 2.50001C35.7017 12 25.29 19 22.811 20.5V45Z" fill="#231F20"/>
</g>
<g id="Group_5">
<path id="Vector_7" d="M18.3488 43.5C18.3488 45 16.8614 46 15.374 46C13.8866 46 12.3992 45 12.3992 43.5C12.3992 42 13.8866 40.5 15.374 40.5C16.8614 40.5 18.3488 41.5 18.3488 43.5Z" fill="#F1F2F2"/>
<path id="Vector_8" d="M15.374 47C13.3908 47 11.4076 45.5 11.4076 43C11.4076 40.5 13.3908 39.5 15.374 39.5C17.3572 39.5 19.3404 41 19.3404 43.5C19.3404 46 17.3572 47 15.374 47ZM15.374 41.5C14.3824 41.5 13.3908 42.5 13.3908 43.5C13.3908 44.5 14.3824 45 15.374 45C16.3656 45 17.3572 44 17.3572 43C17.3572 42.5 16.3656 41.5 15.374 41.5Z" fill="#231F20"/>
</g>
</g>
</g>
<defs>
<clipPath id="clip0_8_645">
<rect width="59" height="52" fill="white" transform="translate(0.500061)"/>
</clipPath>
</defs>
</svg>
