<svg width="75" height="54" viewBox="0 0 75 54" fill="none" xmlns="http://www.w3.org/2000/svg">
<g clip-path="url(#clip0_18_2513)">
<path d="M44.9 34.4891V27H39.2077C38.6385 25.2717 38.0692 23.5434 36.9308 21.8152L40.9154 17.7826L35.7923 12.5978L31.8077 16.6304C30.1 15.4782 28.3923 14.9021 26.1154 14.3261V8.56519H18.7154V14.3261C17.0077 14.9021 14.7308 15.4782 13.0231 16.6304L9.60769 12.5978L4.48462 17.7826L8.46923 21.8152C7.33077 23.5434 6.19231 25.2717 6.19231 27H0.5V34.4891H6.19231C6.76154 36.2174 7.33077 38.5217 8.46923 40.25L4.48462 44.2826L9.60769 49.4674L13.5923 45.4347C15.3 46.5869 17.0077 47.163 19.2846 47.7391V53.5H26.6846V47.7391C28.3923 47.163 30.6692 46.5869 32.3769 45.4347L36.3615 49.4674L41.4846 44.2826L36.9308 40.25C38.0692 38.5217 38.6385 36.7934 39.2077 34.4891H44.9Z" fill="#8DC63F"/>
<path d="M30.6692 31.0327C30.6692 35.6414 27.2538 39.674 22.1308 39.674C17.5769 39.674 13.5923 36.2174 13.5923 31.0327C13.5923 26.424 17.0077 22.3914 22.1308 22.3914C27.2538 22.3914 30.6692 26.424 30.6692 31.0327Z" fill="#F1F2F2"/>
<path d="M74.5 15.4783L73.3615 10.2935L69.3769 11.4457C68.8077 10.2935 67.6692 9.1413 67.1 7.98913L68.8077 4.53261L64.2538 1.65217L61.9769 5.1087C60.8385 4.53261 59.1308 4.53261 57.9923 4.53261L57.4231 0.5L52.3 1.65217L53.4385 5.68478C52.3 6.26087 51.1615 6.83696 50.0231 7.98913L46.6077 5.68478L44.3308 10.2935L47.7462 12.5978C46.6077 13.75 46.6077 14.9022 46.6077 16.6304L43.1923 17.2065L44.3308 22.3913L48.3154 21.2391C48.8846 22.3913 50.0231 23.5435 50.5923 24.6957L48.3154 28.1522L52.8692 31.0326L55.1462 27.5761C56.2846 28.1522 57.9923 28.1522 59.1308 28.1522L60.2692 32.1848L65.3923 31.0326L64.2538 27C65.3923 26.4239 66.5308 25.2717 67.6692 24.6957L71.0846 27L73.9308 22.3913L70.5154 20.087C71.0846 18.9348 71.0846 17.2065 71.0846 16.0543L74.5 15.4783Z" fill="#668E19"/>
<path d="M64.2538 14.9023C64.8231 17.7827 63.1154 21.2392 59.7 21.8153C56.8538 22.9675 53.4385 20.6631 52.8692 17.7827C52.3 14.3262 54.0077 11.4457 57.4231 10.8696C60.2692 9.71748 63.6846 12.0218 64.2538 14.9023Z" fill="#F1F2F2"/>
</g>
<defs>
<clipPath id="clip0_18_2513">
<rect width="74" height="53" fill="white" transform="translate(0.5 0.5)"/>
</clipPath>
</defs>
</svg>
