<svg width="44" height="57" viewBox="0 0 44 57" fill="none" xmlns="http://www.w3.org/2000/svg">
<g clip-path="url(#clip0_18_2486)">
<path d="M37.4595 57L44 49.8V0H0V57H37.4595Z" fill="#8DC63F"/>
<path d="M36.8649 56.4V49.8H44L36.8649 56.4Z" fill="#668E19"/>
<path d="M28.5405 9.6001H16.054V14.4001H28.5405V9.6001Z" fill="white"/>
<path d="M29.1351 15.6H14.8649V9H29.1351V15.6ZM16.6487 13.8H27.3514V10.8H16.6487V13.8Z" fill="white"/>
<path d="M18.4324 24.6001H10.1081V28.8001H18.4324V24.6001Z" fill="white"/>
<path d="M19.6216 29.4H9.51352V24H19.6216V29.4ZM11.2973 28.2H17.8378V25.8H11.2973V28.2Z" fill="white"/>
<path d="M13.6757 37.8H7.72971V42H13.6757V37.8Z" fill="white"/>
<path d="M14.2703 42.6H6.54053V37.2H13.6757V42.6H14.2703ZM8.32431 41.4H12.4865V39H8.32431V41.4Z" fill="white"/>
<path d="M24.973 37.8H19.027V42H24.973V37.8Z" fill="white"/>
<path d="M25.5676 42.6H18.4324V37.2H25.5676V42.6ZM19.6216 41.4H23.7838V39H19.6216V41.4Z" fill="white"/>
<path d="M36.8649 37.8H30.9189V42H36.8649V37.8Z" fill="white"/>
<path d="M37.4595 42.6H29.7297V37.2H36.8649V42.6H37.4595ZM31.5135 41.4H35.6757V39H31.5135V41.4Z" fill="white"/>
<path d="M33.8919 24.6001H25.5676V28.8001H33.8919V24.6001Z" fill="white"/>
<path d="M34.4865 29.4H24.973V24H34.4865V29.4ZM26.1622 28.2H32.7027V25.8H26.1622V28.2Z" fill="white"/>
<path d="M30.3243 25.2H28.5406V21H15.4595V25.2H13.6757V19.2H30.3243V25.2Z" fill="white"/>
<path d="M23.1892 15H21.4054V20.4H23.1892V15Z" fill="white"/>
<path d="M15.4595 28.2H13.6757V34.8H15.4595V28.2Z" fill="white"/>
<path d="M34.4865 38.4001H32.7027V34.8001H11.2973V38.4001H9.51352V33.6001H34.4865V38.4001Z" fill="white"/>
<path d="M23.1892 33.6001H21.4054V38.4001H23.1892V33.6001Z" fill="white"/>
</g>
<defs>
<clipPath id="clip0_18_2486">
<rect width="44" height="57" fill="white"/>
</clipPath>
</defs>
</svg>
