<svg width="74" height="54" viewBox="0 0 74 54" fill="none" xmlns="http://www.w3.org/2000/svg">
<g clip-path="url(#clip0_18_2478)">
<path d="M73.5 18V46.2H63.8471V49.2V50.4V54L61.4339 52.8L60.8306 52.2L58.4174 51L57.8141 50.4L55.4008 49.2L52.9876 47.4L52.3843 46.8L50.5744 46.2H22.8223V18H73.5Z" fill="#668E19"/>
<path d="M0.5 0V28.2H9.54959V36L22.8223 28.2H50.5744V0H0.5Z" fill="#8DC63F"/>
<path d="M17.9959 13.7999C17.9959 14.9999 16.7892 16.1999 15.5826 16.1999C14.376 16.1999 12.5661 14.9999 12.5661 13.7999C12.5661 12.5999 13.7727 11.3999 14.9793 11.3999C16.1859 11.3999 17.9959 11.9999 17.9959 13.7999Z" fill="white"/>
<path d="M28.2521 13.7999C28.2521 14.9999 27.0455 16.1999 25.8389 16.1999C24.6322 16.1999 22.8223 14.9999 22.8223 13.7999C22.8223 12.5999 24.0289 11.3999 25.2355 11.3999C26.4422 11.3999 28.2521 11.9999 28.2521 13.7999Z" fill="white"/>
<path d="M38.5082 13.7999C38.5082 14.9999 37.3016 16.1999 36.095 16.1999C34.8884 16.1999 33.0785 14.9999 33.0785 13.7999C33.0785 12.5999 34.2851 11.3999 35.4917 11.3999C36.6983 11.3999 38.5082 11.9999 38.5082 13.7999Z" fill="white"/>
</g>
<defs>
<clipPath id="clip0_18_2478">
<rect width="73" height="54" fill="white" transform="translate(0.5)"/>
</clipPath>
</defs>
</svg>
