<svg width="65" height="62" viewBox="0 0 65 62" fill="none" xmlns="http://www.w3.org/2000/svg">
<g clip-path="url(#clip0_18_2607)">
<path d="M37.6705 61.9999H5.90909C2.95455 61.9999 0 59.7316 0 55.9511V24.195C0 21.1706 2.21591 18.1462 5.90909 18.1462H37.6705C40.625 18.1462 43.5795 20.4145 43.5795 24.195V56.7072C43.5795 59.7316 41.3636 61.9999 37.6705 61.9999Z" fill="#8DC63F"/>
<path d="M22.1591 51.4145C21.4204 51.4145 19.9432 50.6584 19.2045 49.9023L0.738631 30.2438C-0.738642 28.7316 -0.738642 26.4633 0.738631 24.9511C2.2159 23.4389 4.43181 23.4389 5.90909 24.9511L22.1591 42.3413L59.0909 1.51208C60.5682 -0.00011909 62.7841 -0.00011909 64.2614 1.51208C65.7386 3.02427 65.7386 5.29256 64.2614 6.80476L25.1136 49.9023C24.375 50.6584 22.8977 51.4145 22.1591 51.4145Z" fill="#668E19"/>
</g>
<defs>
<clipPath id="clip0_18_2607">
<rect width="65" height="62" fill="white"/>
</clipPath>
</defs>
</svg>
