<svg width="144" height="119" viewBox="0 0 144 119" fill="none" xmlns="http://www.w3.org/2000/svg">
<path d="M59.4332 84.1653C59.4332 90.6834 54.3624 95.7531 47.8427 95.7531C41.323 95.7531 36.2521 90.6834 36.2521 84.1653C36.2521 77.6471 41.323 72.5774 47.8427 72.5774C53.6379 72.5774 59.4332 77.6471 59.4332 84.1653Z" fill="#A3A3A3"/>
<path d="M47.1182 97.9259C39.8741 97.9259 33.3545 92.1319 33.3545 84.1653C33.3545 76.9228 39.1497 70.4047 47.1182 70.4047C54.3623 70.4047 60.882 76.1986 60.882 84.1653C60.882 92.1319 55.0867 97.9259 47.1182 97.9259ZM47.1182 74.7501C41.323 74.7501 36.9765 79.0956 36.9765 84.8895C36.9765 90.6835 41.323 95.0289 47.1182 95.0289C52.9135 95.0289 57.26 90.6835 57.26 84.8895C57.26 79.0956 52.9135 74.7501 47.1182 74.7501Z" fill="#D1D3D4"/>
<path d="M107.244 14.638C107.244 21.1562 102.173 26.2259 95.6537 26.2259C89.134 26.2259 84.0631 21.1562 84.0631 14.638C84.0631 8.11985 89.134 3.05016 95.6537 3.05016C102.173 2.32591 107.244 8.11985 107.244 14.638Z" fill="#A3A3A3"/>
<path d="M95.6537 27.6744C88.4096 27.6744 81.8899 21.8805 81.8899 13.9138C81.8899 5.94714 87.6852 0.153198 95.6537 0.153198C102.898 0.153198 109.417 5.94714 109.417 13.9138C109.417 21.8805 102.898 27.6744 95.6537 27.6744ZM95.6537 4.49866C89.8584 4.49866 85.5119 8.84411 85.5119 14.638C85.5119 20.432 89.8584 24.7774 95.6537 24.7774C101.449 24.7774 105.795 20.432 105.795 14.638C105.795 8.84411 100.725 4.49866 95.6537 4.49866Z" fill="#D1D3D4"/>
<path d="M140.567 58.8169C140.567 65.3351 135.496 70.4048 128.977 70.4048C122.457 70.4048 117.386 65.3351 117.386 58.8169C117.386 52.2987 122.457 47.229 128.977 47.229C135.496 47.229 140.567 52.2987 140.567 58.8169Z" fill="#A3A3A3"/>
<path d="M128.977 72.5775C121.732 72.5775 115.213 66.7836 115.213 58.8169C115.213 50.8502 121.008 45.0563 128.977 45.0563C136.221 45.0563 142.74 50.8502 142.74 58.8169C142.74 66.7836 136.221 72.5775 128.977 72.5775ZM128.977 48.6775C123.181 48.6775 118.835 53.0229 118.835 58.8169C118.835 64.6108 123.181 68.9563 128.977 68.9563C134.772 68.9563 139.118 64.6108 139.118 58.8169C138.394 53.0229 134.047 48.6775 128.977 48.6775Z" fill="#D1D3D4"/>
<path d="M43.4962 72.5775C43.4962 79.0957 38.4253 84.1654 31.9056 84.1654C25.3859 84.1654 20.3151 79.0957 20.3151 72.5775C20.3151 66.0593 25.3859 60.9896 31.9056 60.9896C38.4253 60.9896 43.4962 66.0593 43.4962 72.5775Z" fill="#D1D3D4"/>
<path d="M31.9056 86.3381C24.6615 86.3381 18.1418 80.5442 18.1418 72.5775C18.1418 65.3351 23.9371 58.8169 31.9056 58.8169C39.8741 58.8169 45.6694 64.6108 45.6694 72.5775C44.945 80.5442 39.1497 86.3381 31.9056 86.3381ZM31.9056 62.4381C26.1104 62.4381 21.7639 66.7836 21.7639 72.5775C21.7639 78.3714 26.1104 82.7169 31.9056 82.7169C37.7009 82.7169 42.0474 78.3714 42.0474 72.5775C41.323 67.5078 36.9765 62.4381 31.9056 62.4381Z" fill="#D1D3D4"/>
<path d="M55.0868 47.229C55.0868 61.7138 43.4962 74.0259 28.2836 74.0259C13.7954 74.0259 1.48047 62.4381 1.48047 47.229C1.48047 32.7441 13.071 20.432 28.2836 20.432C43.4962 20.432 55.0868 32.0199 55.0868 47.229Z" fill="#A3A3A3"/>
<path d="M28.2836 75.4744C12.3466 75.4744 0.0316162 62.4381 0.0316162 47.229C0.0316162 32.0199 13.071 18.9835 28.2836 18.9835C44.2206 18.9835 56.5356 32.0199 56.5356 47.229C56.5356 62.4381 44.2206 75.4744 28.2836 75.4744ZM28.2836 22.6047C14.5198 22.6047 3.65366 33.4684 3.65366 47.229C3.65366 60.9896 14.5198 71.8532 28.2836 71.8532C42.0474 71.8532 52.9135 60.9896 52.9135 47.229C53.6379 33.4684 42.0474 22.6047 28.2836 22.6047Z" fill="#D1D3D4"/>
<path d="M73.9214 61.7138C73.9214 71.8532 65.2285 80.5441 55.0868 80.5441C44.945 80.5441 36.2521 71.8532 36.2521 61.7138C36.2521 51.5744 44.945 42.8835 55.0868 42.8835C65.2285 42.8835 73.9214 51.5744 73.9214 61.7138Z" fill="#7D7D7D"/>
<path d="M55.0868 82.7169C43.4962 82.7169 34.8033 73.3017 34.8033 62.4381C34.8033 50.8502 44.2206 42.1593 55.0868 42.1593C65.9529 42.1593 75.3702 51.5745 75.3702 62.4381C75.3702 73.3017 65.9529 82.7169 55.0868 82.7169ZM55.0868 45.0563C45.6694 45.0563 38.4253 52.2987 38.4253 61.7138C38.4253 71.129 45.6694 78.3714 55.0868 78.3714C64.5041 78.3714 71.7481 71.129 71.7481 61.7138C71.7481 53.0229 64.5041 45.0563 55.0868 45.0563Z" fill="#D1D3D4"/>
<path d="M135.496 33.4684C135.496 43.6078 126.803 52.2987 116.662 52.2987C106.52 52.2987 97.8269 43.6078 97.8269 33.4684C97.8269 23.329 106.52 14.6381 116.662 14.6381C126.803 14.6381 135.496 23.329 135.496 33.4684Z" fill="#D1D3D4"/>
<path d="M116.662 53.7472C105.071 53.7472 96.3781 44.332 96.3781 33.4684C96.3781 21.8805 105.795 13.1896 116.662 13.1896C127.528 13.1896 136.945 22.6047 136.945 33.4684C137.669 45.0562 128.252 53.7472 116.662 53.7472ZM116.662 16.8108C107.244 16.8108 100 24.0532 100 33.4684C100 42.8835 107.244 50.1259 116.662 50.1259C126.079 50.1259 133.323 42.8835 133.323 33.4684C134.047 24.0532 126.079 16.8108 116.662 16.8108Z" fill="#D1D3D4"/>
<path d="M81.8899 60.2653C94.6925 60.2653 105.071 49.8892 105.071 37.0896C105.071 24.29 94.6925 13.9138 81.8899 13.9138C69.0873 13.9138 58.7088 24.29 58.7088 37.0896C58.7088 49.8892 69.0873 60.2653 81.8899 60.2653Z" fill="#D1D3D4"/>
<path d="M81.8899 62.4381C68.1261 62.4381 56.5356 50.8502 56.5356 37.0896C56.5356 23.329 68.1261 11.7411 81.8899 11.7411C95.6537 11.7411 107.244 23.329 107.244 37.0896C107.244 50.8502 95.6537 62.4381 81.8899 62.4381ZM81.8899 15.3623C70.2994 15.3623 60.1576 24.7775 60.1576 37.0896C60.1576 48.6775 69.575 58.8168 81.8899 58.8168C93.4805 58.8168 103.622 49.4017 103.622 37.0896C103.622 25.5017 93.4805 15.3623 81.8899 15.3623Z" fill="#D1D3D4"/>
<path d="M68.1261 98.6501C68.1261 103.72 63.7797 108.065 58.7088 108.065C53.638 108.065 49.2915 103.72 49.2915 98.6501C49.2915 93.5804 53.638 89.235 58.7088 89.235C63.7797 89.9592 68.1261 93.5804 68.1261 98.6501Z" fill="#D1D3D4"/>
<path d="M58.7088 110.238C52.9135 110.238 47.8427 105.168 47.8427 99.3744C47.8427 93.5804 52.9135 88.5107 58.7088 88.5107C64.5041 88.5107 69.575 93.5804 69.575 99.3744C69.575 105.168 65.2285 110.238 58.7088 110.238ZM58.7088 91.4077C54.3624 91.4077 51.4647 95.0289 51.4647 98.6501C51.4647 102.996 55.0868 105.893 58.7088 105.893C63.0553 105.893 65.9529 102.271 65.9529 98.6501C65.9529 95.0289 63.0553 91.4077 58.7088 91.4077Z" fill="#D1D3D4"/>
<path d="M68.1261 38.5381C68.1261 43.6078 63.7797 47.9532 58.7088 47.9532C53.638 47.9532 49.2915 43.6078 49.2915 38.5381C49.2915 33.4684 53.638 29.1229 58.7088 29.1229C63.7797 29.1229 68.1261 33.4684 68.1261 38.5381Z" fill="#A3A3A3"/>
<path d="M58.7088 49.4017C52.9135 49.4017 47.8427 44.332 47.8427 38.5381C47.8427 32.7441 52.9135 27.6744 58.7088 27.6744C64.5041 27.6744 69.575 32.7441 69.575 38.5381C69.575 44.332 65.2285 49.4017 58.7088 49.4017ZM58.7088 31.2957C54.3624 31.2957 51.4647 34.9169 51.4647 38.5381C51.4647 42.8835 55.0868 45.7805 58.7088 45.7805C63.0553 45.7805 65.9529 42.1593 65.9529 38.5381C65.9529 34.9169 63.0553 31.2957 58.7088 31.2957Z" fill="#D1D3D4"/>
<path d="M62.3309 37.0896C71.5327 37.0896 78.9923 29.6317 78.9923 20.432C78.9923 11.2323 71.5327 3.77441 62.3309 3.77441C53.129 3.77441 45.6694 11.2323 45.6694 20.432C45.6694 29.6317 53.129 37.0896 62.3309 37.0896Z" fill="#7D7D7D"/>
<path d="M62.3309 39.2623C52.1891 39.2623 43.4962 31.2956 43.4962 20.432C43.4962 10.2926 51.4647 1.60168 62.3309 1.60168C72.4726 1.60168 81.1655 9.56835 81.1655 20.432C81.1655 30.5714 72.4726 39.2623 62.3309 39.2623ZM62.3309 5.94714C54.3624 5.94714 47.8427 12.4653 47.8427 20.432C47.8427 28.3987 54.3624 34.9168 62.3309 34.9168C70.2994 34.9168 76.8191 28.3987 76.8191 20.432C77.5435 12.4653 70.2994 5.94714 62.3309 5.94714Z" fill="#D1D3D4"/>
<path d="M123.906 50.126C123.906 59.5411 116.662 66.7835 107.244 66.7835C97.8269 66.7835 90.5828 59.5411 90.5828 50.126C90.5828 40.7108 97.8269 33.4684 107.244 33.4684C116.662 33.4684 123.906 40.7108 123.906 50.126Z" fill="#7D7D7D"/>
<path d="M107.244 68.9563C97.1025 68.9563 88.4096 60.9896 88.4096 50.126C88.4096 39.9866 96.3781 31.2957 107.244 31.2957C117.386 31.2957 126.079 39.2623 126.079 50.126C126.079 60.2654 117.386 68.9563 107.244 68.9563ZM107.244 34.9169C99.2757 34.9169 92.7561 41.435 92.7561 49.4017C92.7561 57.3684 99.2757 63.8866 107.244 63.8866C115.213 63.8866 121.732 57.3684 121.732 49.4017C122.457 42.1593 115.213 34.9169 107.244 34.9169Z" fill="#D1D3D4"/>
<path d="M116.662 79.0957C121.863 79.0957 126.079 74.8804 126.079 69.6805C126.079 64.4807 121.863 60.2654 116.662 60.2654C111.461 60.2654 107.244 64.4807 107.244 69.6805C107.244 74.8804 111.461 79.0957 116.662 79.0957Z" fill="#A3A3A3"/>
<path d="M116.662 80.5442C110.866 80.5442 105.795 75.4745 105.795 69.6805C105.795 63.8866 110.866 58.8169 116.662 58.8169C122.457 58.8169 127.528 63.8866 127.528 69.6805C127.528 75.4745 123.181 80.5442 116.662 80.5442ZM116.662 62.4381C112.315 62.4381 109.417 66.0593 109.417 69.6805C109.417 74.026 113.04 76.9229 116.662 76.9229C120.284 76.9229 123.906 73.3017 123.906 69.6805C123.906 65.3351 121.008 62.4381 116.662 62.4381Z" fill="#D1D3D4"/>
<path d="M62.3309 108.79C62.3309 113.135 58.7088 116.032 55.0868 116.032C51.4647 116.032 47.8427 112.411 47.8427 108.79C47.8427 104.444 51.4647 101.547 55.0868 101.547C58.7088 101.547 62.3309 104.444 62.3309 108.79Z" fill="#A3A3A3"/>
<path d="M55.0868 118.205C50.0159 118.205 45.6694 113.859 45.6694 108.79C45.6694 103.72 50.0159 99.3744 55.0868 99.3744C60.1576 99.3744 64.5041 103.72 64.5041 108.79C64.5041 113.859 60.1576 118.205 55.0868 118.205ZM55.0868 102.996C52.1891 102.996 49.2915 105.893 49.2915 108.79C49.2915 111.687 52.1891 114.583 55.0868 114.583C57.9844 114.583 60.882 111.687 60.882 108.79C60.882 105.168 57.9844 102.996 55.0868 102.996Z" fill="#D1D3D4"/>
<path d="M81.1655 91.4077C81.1655 95.7532 77.5434 98.6501 73.9214 98.6501C70.2994 98.6501 66.6773 95.0289 66.6773 91.4077C66.6773 87.0623 70.2994 84.1653 73.9214 84.1653C77.5434 84.1653 81.1655 87.0623 81.1655 91.4077Z" fill="#A3A3A3"/>
<path d="M73.9214 100.823C68.8505 100.823 64.5041 96.4774 64.5041 91.4077C64.5041 86.338 68.8505 81.9926 73.9214 81.9926C78.9923 81.9926 83.3387 86.338 83.3387 91.4077C83.3387 96.4774 78.9923 100.823 73.9214 100.823ZM73.9214 85.6138C71.0238 85.6138 68.1261 88.5107 68.1261 91.4077C68.1261 94.3047 71.0238 97.2016 73.9214 97.2016C76.819 97.2016 79.7166 94.3047 79.7166 91.4077C79.7166 88.5107 76.819 85.6138 73.9214 85.6138Z" fill="#D1D3D4"/>
<path d="M102.898 69.6805C102.898 80.5442 94.2048 89.2351 83.3387 89.2351C72.4726 89.2351 63.7797 80.5442 63.7797 69.6805C63.7797 58.8169 72.4726 50.126 83.3387 50.126C94.2048 50.126 102.898 58.8169 102.898 69.6805Z" fill="#A3A3A3"/>
<path d="M83.3387 90.6836C71.7481 90.6836 62.3309 81.2684 62.3309 69.6805C62.3309 58.0926 71.7481 48.6775 83.3387 48.6775C94.9292 48.6775 104.347 58.0926 104.347 69.6805C105.071 81.2684 95.6537 90.6836 83.3387 90.6836ZM83.3387 52.2987C73.9214 52.2987 65.9529 60.2654 65.9529 69.6805C65.9529 79.0957 73.9214 87.0624 83.3387 87.0624C92.756 87.0624 100.725 79.0957 100.725 69.6805C101.449 59.5411 93.4804 52.2987 83.3387 52.2987Z" fill="#D1D3D4"/>
<path d="M31.9056 25.5017C35.9064 25.5017 39.1497 22.2592 39.1497 18.2593C39.1497 14.2594 35.9064 11.0168 31.9056 11.0168C27.9048 11.0168 24.6615 14.2594 24.6615 18.2593C24.6615 22.2592 27.9048 25.5017 31.9056 25.5017Z" fill="#D1D3D4"/>
<path d="M31.9056 27.6744C26.8348 27.6744 22.4883 23.329 22.4883 18.2593C22.4883 13.1896 26.8348 8.84412 31.9056 8.84412C36.9765 8.84412 41.323 13.1896 41.323 18.2593C41.323 23.329 36.9765 27.6744 31.9056 27.6744ZM31.9056 12.4653C29.008 12.4653 26.1104 15.3623 26.1104 18.2593C26.1104 21.1562 29.008 24.0532 31.9056 24.0532C34.8033 24.0532 37.7009 21.1562 37.7009 18.2593C36.9765 15.3623 34.8033 12.4653 31.9056 12.4653Z" fill="#D1D3D4"/>
<path d="M142.016 47.9532C142.016 52.2987 138.394 55.1956 134.772 55.1956C130.425 55.1956 127.528 51.5744 127.528 47.9532C127.528 43.6078 131.15 40.7108 134.772 40.7108C138.394 39.9865 142.016 43.6078 142.016 47.9532Z" fill="#7D7D7D"/>
<path d="M134.047 57.3684C128.976 57.3684 124.63 53.0229 124.63 47.9532C124.63 42.8835 128.976 38.5381 134.047 38.5381C139.118 38.5381 143.465 42.8835 143.465 47.9532C143.465 53.0229 139.843 57.3684 134.047 57.3684ZM134.047 42.1593C131.15 42.1593 128.252 45.0563 128.252 47.9532C128.252 50.8502 131.15 53.7472 134.047 53.7472C136.945 53.7472 139.843 50.8502 139.843 47.9532C139.843 44.332 137.669 42.1593 134.047 42.1593Z" fill="#D1D3D4"/>
<path d="M119.559 14.638C119.559 18.9835 115.937 21.8804 112.315 21.8804C107.969 21.8804 105.071 18.2592 105.071 14.638C105.071 11.0168 108.693 7.3956 112.315 7.3956C116.662 6.67136 119.559 10.2926 119.559 14.638Z" fill="#7D7D7D"/>
<path d="M112.315 24.0532C107.244 24.0532 102.898 19.7077 102.898 14.6381C102.898 9.56835 107.244 5.2229 112.315 5.2229C117.386 5.2229 121.732 9.56835 121.732 14.6381C121.732 19.7077 117.386 24.0532 112.315 24.0532ZM112.315 8.84411C109.417 8.84411 106.52 11.7411 106.52 14.6381C106.52 17.535 109.417 20.432 112.315 20.432C115.213 20.432 118.11 17.535 118.11 14.6381C118.11 11.0168 115.213 8.84411 112.315 8.84411Z" fill="#D1D3D4"/>
<path d="M89.134 9.56835C89.134 13.9138 85.512 16.8108 81.8899 16.8108C78.2679 16.8108 74.6458 13.1896 74.6458 9.56835C74.6458 5.94714 78.2679 2.32593 81.8899 2.32593C85.512 2.32593 89.134 5.2229 89.134 9.56835Z" fill="#D1D3D4"/>
<path d="M81.8899 18.9835C76.819 18.9835 72.4726 14.638 72.4726 9.56835C72.4726 4.49865 76.819 0.153198 81.8899 0.153198C86.9608 0.153198 91.3073 4.49865 91.3073 9.56835C91.3073 14.638 86.9608 18.9835 81.8899 18.9835ZM81.8899 3.77441C78.9923 3.77441 76.0946 6.67138 76.0946 9.56835C76.0946 12.4653 78.9923 15.3623 81.8899 15.3623C84.7875 15.3623 87.6852 12.4653 87.6852 9.56835C87.6852 5.94714 84.7875 3.77441 81.8899 3.77441Z" fill="#D1D3D4"/>
<path d="M59.4332 16.0865C59.4332 22.6047 54.3624 27.6744 47.8427 27.6744C41.323 27.6744 36.2521 22.6047 36.2521 16.0865C36.2521 9.56835 41.323 4.49866 47.8427 4.49866C54.3624 4.49866 59.4332 9.56835 59.4332 16.0865Z" fill="#A3A3A3"/>
<path d="M47.8427 29.8471C40.5986 29.8471 34.0789 24.0532 34.0789 16.0865C34.0789 8.84411 39.8742 2.32593 47.8427 2.32593C55.0868 2.32593 61.6064 8.11986 61.6064 16.0865C60.882 24.0532 55.0868 29.8471 47.8427 29.8471ZM47.8427 6.67138C42.7718 6.67138 37.7009 11.0168 37.7009 16.8108C37.7009 21.8805 42.0474 26.9502 47.8427 26.9502C52.9135 26.9502 57.9844 22.6047 57.9844 16.8108C57.26 11.0168 52.9135 6.67138 47.8427 6.67138Z" fill="#D1D3D4"/>
<path d="M112.315 73.3016C112.315 78.3713 107.969 82.7168 102.898 82.7168C97.8269 82.7168 93.4804 78.3713 93.4804 73.3016C93.4804 68.2319 97.8269 63.8865 102.898 63.8865C107.969 64.6107 112.315 68.2319 112.315 73.3016Z" fill="#D1D3D4"/>
<path d="M102.898 84.8895C97.1025 84.8895 92.0316 79.8198 92.0316 74.0259C92.0316 68.2319 97.1025 63.1622 102.898 63.1622C108.693 63.1622 113.764 68.2319 113.764 74.0259C113.764 79.8198 109.417 84.8895 102.898 84.8895ZM102.898 66.0592C98.5513 66.0592 95.6537 69.6804 95.6537 73.3016C95.6537 77.6471 99.2757 80.544 102.898 80.544C107.244 80.544 110.142 76.9228 110.142 73.3016C110.142 69.6804 107.244 66.0592 102.898 66.0592Z" fill="#D1D3D4"/>
<path d="M72.4726 84.8895C72.4726 89.235 68.8505 92.8562 64.5041 92.8562C60.1576 92.8562 56.5356 89.235 56.5356 84.8895C56.5356 80.5441 60.1576 76.9229 64.5041 76.9229C68.8505 76.9229 72.4726 80.5441 72.4726 84.8895Z" fill="#7D7D7D"/>
<path d="M64.5041 95.0289C58.7088 95.0289 54.3623 90.6835 54.3623 84.8895C54.3623 79.0956 58.7088 74.7501 64.5041 74.7501C70.2994 74.7501 74.6458 79.0956 74.6458 84.8895C74.6458 90.6835 69.5749 95.0289 64.5041 95.0289ZM64.5041 78.3713C60.882 78.3713 57.9844 81.2683 57.9844 84.8895C57.9844 88.5107 60.882 91.4077 64.5041 91.4077C68.1261 91.4077 71.0238 88.5107 71.0238 84.8895C70.2994 81.2683 68.1261 78.3713 64.5041 78.3713Z" fill="#D1D3D4"/>
</svg>
