<svg width="107" height="113" viewBox="0 0 107 113" fill="none" xmlns="http://www.w3.org/2000/svg">
<path d="M23.5749 65.9564C22.8505 65.9564 22.126 65.9564 22.126 65.2322L15.6064 56.5412C14.8819 55.817 14.8819 55.0928 15.6064 54.3685L21.4016 39.1594C22.126 37.711 23.5749 36.2625 25.0237 35.5382C26.4725 34.814 28.6457 34.814 30.0945 36.2625C32.9922 37.7109 33.7166 41.3321 32.9922 44.2291L25.0237 65.2322C25.0237 65.2322 24.2993 65.9564 23.5749 65.9564ZM19.9528 55.0927L22.8505 59.4382L29.3701 42.0564C30.0945 41.3321 29.3701 39.8837 28.6457 39.1594C27.9213 39.1594 27.1969 38.4352 26.4725 39.1594C25.7481 39.1594 25.0237 39.8837 25.0237 40.6079L19.9528 55.0927Z" fill="white"/>
<path d="M6.18904 110.135L12.7087 89.8564C13.4331 86.9594 13.4331 84.0625 11.9843 81.1655L4.01581 65.2322C2.56699 63.0594 2.56699 60.1625 4.01581 57.9897L15.6064 33.3655C17.0552 30.4685 19.9528 29.7443 22.8505 31.1927C25.0237 32.6412 26.4725 35.5382 25.7481 37.7109L18.504 57.9897L30.819 75.3716L35.8898 62.3352C38.7875 58.714 41.6851 57.2655 45.3072 60.8867L42.4095 76.82C40.9607 85.5109 35.1654 93.4776 27.1969 97.8231L6.18904 110.135Z" fill="#A3A3A3"/>
<path d="M6.18905 112.308C5.46465 112.308 5.46464 112.308 4.74023 111.584C4.01582 110.859 4.01583 110.135 4.01583 109.411L10.5355 89.1321C11.2599 86.9594 11.2599 84.0624 9.8111 81.8897L1.8426 65.9564C0.393777 63.0594 0.393777 59.4382 1.8426 56.5412L13.4331 31.917C14.1576 29.7443 15.6064 29.02 17.7796 28.2958C19.9528 27.5716 22.1261 27.5715 23.5749 29.02C27.1969 30.4685 28.6457 34.814 27.1969 38.4352L19.9528 57.2655L29.3702 70.3018L32.9922 60.8867C32.9922 60.8867 32.9922 60.8867 32.9922 60.1624C35.1654 57.2655 37.3387 55.817 39.5119 55.817C41.6851 55.817 43.8583 56.5412 46.0316 58.714C46.756 59.4382 46.756 60.1625 46.756 60.8867L43.8583 76.82C43.1339 81.8897 40.9607 86.2352 38.0631 89.8564C35.1654 93.4776 31.5434 97.0988 27.1969 99.2715L5.46464 111.584C6.18905 111.584 6.18905 112.308 6.18905 112.308ZM20.6772 31.917H19.9528C19.2284 31.917 18.504 32.6412 17.7796 33.3655L6.18905 57.9897C5.46465 60.1624 5.46465 61.6109 6.18905 63.7837L14.1576 79.717C15.6064 82.614 16.3308 86.9594 14.882 89.8564L9.8111 105.065L27.1969 95.6503C30.819 93.4776 33.7166 90.5806 36.6143 87.6836C38.7875 84.0624 40.9607 80.4412 41.6851 76.0958L44.5828 60.8867C43.8583 60.1625 43.1339 60.1624 42.4095 60.1624C41.6851 60.1624 40.2363 60.8867 38.7875 63.0594L33.7166 75.3715C33.7166 76.0958 32.9922 76.82 32.2678 76.82C31.5434 76.82 30.819 76.82 30.0946 76.0958L16.3308 58.714C15.6064 57.9897 15.6064 57.2655 16.3308 56.5412L23.5749 36.2624C24.2993 34.814 23.5749 32.6412 22.1261 31.917C22.1261 32.6412 21.4017 31.917 20.6772 31.917Z" fill="white"/>
<path d="M84.4252 65.9563C83.7008 65.9563 82.9764 65.2321 82.252 64.5079L74.2835 43.5048C73.5591 40.6078 74.2835 37.7109 77.1811 35.5382C78.63 34.8139 80.8032 34.0897 82.252 34.8139C83.7008 35.5381 85.1496 36.9866 85.8741 38.4351L91.6693 53.6442C91.6693 54.3685 91.6693 55.0927 91.6693 55.8169L85.1496 64.5079C85.874 65.9563 85.1496 65.9563 84.4252 65.9563ZM80.8032 39.1594C80.0788 39.1594 80.0788 39.1594 79.3544 39.1594C78.63 39.8836 77.9055 40.6078 78.63 42.0563L85.1496 59.4382L88.0473 55.0927L82.9764 40.6078C82.9764 39.8836 82.252 39.8836 81.5276 39.1594C81.5276 39.1594 81.5276 39.1594 80.8032 39.1594Z" fill="white"/>
<path d="M102.536 110.135L96.0158 89.8564C95.2914 86.9594 95.2914 84.0625 96.7403 81.1655L104.709 65.2322C106.158 63.0594 106.158 60.1625 104.709 57.9897L93.1182 33.3655C91.6694 30.4685 88.7718 29.7443 85.8741 31.1927C83.7009 32.6412 82.2521 35.5382 82.9765 37.7109L90.2206 57.9897L77.9056 75.3716L72.8347 62.3352C69.9371 58.714 67.0395 57.2655 63.4174 60.8867L66.3151 76.82C67.7639 85.5109 73.5592 93.4776 81.5277 97.8231L102.536 110.135Z" fill="#A3A3A3"/>
<path d="M102.536 112.308H101.811L80.0788 99.9957C75.7324 97.823 72.1103 94.2018 69.2127 90.5806C66.315 86.9594 64.8662 81.8897 63.4174 77.5442L60.5198 61.6109C60.5198 60.8866 60.5198 60.1624 61.2442 59.4382C63.4174 57.2654 65.5906 56.5412 67.7639 56.5412C69.9371 56.5412 72.1103 57.9897 74.2836 60.8866C74.2836 60.8866 74.2836 60.8866 74.2836 61.6109L77.9056 71.026L87.3229 57.9897L80.0788 39.1594C78.63 35.5382 80.0788 31.9169 83.7009 29.7442C85.8741 29.02 87.3229 28.2957 89.4962 29.02C91.6694 29.7442 93.1182 31.1927 93.8426 32.6412L105.433 57.2654C106.882 60.1624 106.882 63.7836 105.433 66.6806L97.4647 82.6139C96.0158 84.7866 96.0158 87.6836 96.7402 89.8563L103.26 110.135C103.26 110.859 103.26 111.584 102.536 112.308ZM64.8662 61.6109L67.0395 76.0957C67.7639 80.4412 69.2127 84.0624 72.1103 87.6836C74.2836 91.3048 77.9056 94.2018 81.5276 95.6503L98.9135 105.065L93.8426 90.5806C92.3938 86.9594 93.1182 83.3381 94.567 80.4412L102.536 64.5079C103.26 63.0594 103.26 60.8866 102.536 58.7139L90.945 34.0897C90.2206 33.3654 89.4961 32.6412 88.7717 32.6412C88.0473 32.6412 87.3229 32.6412 85.8741 32.6412C84.4253 33.3654 83.7009 35.5381 84.4253 36.9866L91.6694 57.2654C91.6694 57.9897 91.6694 58.7139 91.6694 59.4382L79.3544 76.0957C78.63 76.82 77.9056 76.82 77.1812 76.82C76.4568 76.82 75.7324 76.0957 75.7324 75.3715L70.6615 63.0594C69.2127 61.6109 68.4883 60.8866 67.0395 60.1624C66.315 60.1624 65.5906 60.8866 64.8662 61.6109Z" fill="white"/>
<path d="M56.1733 89.1321H51.8268V51.4715C51.8268 49.2988 49.6536 47.1261 47.4804 47.1261C43.1339 47.1261 38.7875 43.5049 38.7875 38.4352V20.3291H43.1339V38.4352C43.1339 40.6079 45.3072 42.7806 47.4804 42.7806C51.8268 42.7806 56.1733 46.4018 56.1733 51.4715V89.1321Z" fill="#838383"/>
<path d="M52.5513 52.92L51.8268 51.4715C51.8268 51.4715 50.378 47.8503 49.6536 43.5049C49.6536 36.9867 51.8269 31.917 56.8977 28.2958L69.9371 18.8806L70.6615 21.7776C70.6615 22.5018 75.008 36.9867 68.4883 45.6776C65.5906 50.023 60.5198 52.1958 54.0001 52.92H52.5513ZM67.7639 26.123L59.7954 31.917C56.1733 34.814 54.0001 38.4352 54.7245 43.5049C54.7245 45.6776 55.4489 47.8503 55.4489 48.5746C59.7954 47.8503 63.4174 46.4018 64.8662 43.5049C69.2127 38.4352 68.4883 30.4685 67.7639 26.123Z" fill="#838383"/>
<path d="M43.134 25.3988L40.9607 24.6745C40.9607 24.6745 33.7166 21.7776 30.819 15.2594C28.6458 11.6382 28.6458 6.56848 30.819 1.49878L31.5434 0.050293L32.9922 0.774524C37.3387 1.49877 40.2363 3.6715 42.4096 7.29272C44.5828 11.6382 45.3072 17.4321 43.8584 23.2261L43.134 25.3988ZM33.7166 5.12C32.9922 8.01696 32.9922 10.9139 34.4411 13.0867C35.8899 15.9836 38.7875 18.1563 40.2363 18.8806C40.9607 15.2594 40.2363 11.6382 38.7875 8.74121C38.0631 8.01696 35.8899 6.56848 33.7166 5.12Z" fill="#838383"/>
</svg>
