<svg width="100" height="120" viewBox="0 0 100 120" fill="none" xmlns="http://www.w3.org/2000/svg">
<path d="M31.2206 96.7533H26.1497V117.032H31.2206V96.7533Z" fill="white"/>
<path d="M55.8505 119.929H0.0709229V114.859H50.0552V76.4745H55.8505V119.929Z" fill="#838383"/>
<path d="M94.2442 119.929H61.6458V76.4745H66.7166V114.859H94.2442V119.929Z" fill="white"/>
<path d="M97.1418 40.9867C97.1418 61.9897 80.4804 78.6473 59.4725 78.6473C44.9844 78.6473 32.6694 70.6806 26.1497 58.3685C22.5277 54.023 21.0789 47.5048 21.0789 40.9867C21.0789 19.9836 37.7403 3.32605 58.7481 3.32605C65.2678 3.32605 71.0631 4.77453 76.8584 7.6715C88.4489 14.1897 97.1418 26.5018 97.1418 40.9867Z" fill="#5E5E5E"/>
<path d="M58.7482 81.5442C43.5356 81.5442 29.7718 73.5776 23.2521 59.817C20.3544 54.023 18.1812 47.5048 18.1812 40.9867C18.1812 18.5351 36.2915 0.429077 58.7482 0.429077C65.2678 0.429077 71.7875 1.87756 77.5828 5.49877C90.6222 12.7412 99.3151 26.5018 99.3151 40.9867C99.3151 63.4382 81.2049 81.5442 58.7482 81.5442ZM58.7482 6.22302C39.1891 6.22302 23.2521 22.1563 23.2521 41.7109C23.2521 47.5048 24.7009 53.2988 27.5986 58.3685C33.3938 69.9564 45.7088 77.1988 58.7482 77.1988C78.3072 77.1988 94.2442 61.2654 94.2442 41.7109C94.2442 28.6745 87.0001 17.0867 75.4096 10.5685C70.3387 7.6715 64.5434 6.22302 58.7482 6.22302Z" fill="white"/>
<path d="M46.4332 79.3716C46.4332 88.7867 38.4647 96.7534 29.0474 96.7534C21.8033 96.7534 16.008 92.4079 13.1104 86.614C11.6616 84.4413 11.6616 81.5443 11.6616 78.6473C11.6616 69.2322 19.63 61.2655 29.0474 61.2655C31.945 61.2655 34.1183 61.9898 37.0159 62.714C42.8112 66.3352 46.4332 72.1291 46.4332 79.3716Z" fill="#5E5E5E"/>
<path d="M29.0474 99.6504C25.4253 99.6504 21.0789 98.2019 18.1812 96.7534C15.2836 94.5806 12.386 91.6837 10.9371 88.7867C9.48832 85.8897 8.76392 82.9928 8.76392 80.0958C8.76392 69.2322 18.1812 59.817 29.0474 59.817C31.945 59.817 34.8427 60.5413 37.7403 61.9897C41.3623 63.4382 44.26 66.3352 45.7088 69.2322C47.882 72.1291 48.6064 76.4746 48.6064 80.0958C49.3308 90.2352 39.9135 99.6504 29.0474 99.6504ZM29.0474 64.1625C21.0789 64.1625 13.8348 70.6807 13.8348 79.3716C13.8348 81.5443 14.5592 83.717 15.2836 85.8897C17.4568 90.9594 23.2521 94.5807 29.0474 94.5807C37.0159 94.5807 44.26 88.0625 44.26 79.3716C44.26 73.5776 40.6379 68.5079 35.5671 65.611C33.3938 64.1625 31.2206 64.1625 29.0474 64.1625Z" fill="white"/>
</svg>
