<svg width="185" height="140" viewBox="0 0 185 140" fill="none" xmlns="http://www.w3.org/2000/svg">
<path d="M60.7245 34.9628C60.0001 34.9628 60.0001 34.2386 60.0001 34.2386C59.2757 34.2386 59.2757 34.2386 59.2757 33.5143C56.378 30.6174 51.3072 30.6174 48.4095 32.7901C42.6143 37.1355 45.5119 47.2749 44.0631 53.0689C42.6143 57.4143 40.441 60.3113 37.5434 63.2083C34.6458 66.1052 31.0237 68.278 27.4017 68.278C29.5749 66.1052 31.7481 63.9325 33.1969 60.3113C30.2993 64.6567 25.2284 68.278 19.4332 69.0022C12.9135 71.1749 0.598511 66.1052 0.598511 65.381C3.49615 65.381 6.39379 64.6567 9.29142 63.2083C10.0158 63.2083 10.7402 62.484 11.4647 62.484C15.8111 60.3113 18.7087 55.9658 20.882 51.6204C24.504 45.1022 25.2284 37.1355 30.2993 31.3416C34.6458 26.2719 40.441 24.0992 46.9607 24.8234C47.6851 24.8234 49.1339 24.8234 49.8583 25.5477C52.756 26.2719 54.9292 27.7204 57.8269 29.1689C60.0001 30.6174 62.1733 32.0658 62.8977 34.2386C63.6221 34.9628 62.1733 35.6871 60.7245 34.9628Z" fill="#A2A2A2"/>
<path d="M172.284 3.82043C170.835 3.82043 169.386 4.54468 168.661 5.26892C168.661 5.26892 170.11 5.99316 170.835 7.44165C171.559 5.99316 172.284 5.26892 172.284 3.82043C173.008 3.82043 173.008 3.82043 172.284 3.82043Z" fill="#666666"/>
<path d="M62.1733 33.5143L60.7245 34.9628C60.0001 34.9628 60.0001 34.2385 60.0001 34.2385C59.2757 34.2385 59.2757 34.2385 59.2757 33.5143C56.3781 30.6173 51.3072 30.6173 48.4096 32.7901C42.6143 37.1355 45.5119 47.2749 44.0631 53.0688C42.6143 57.4143 40.441 60.3113 37.5434 63.2082C34.6458 66.1052 31.0237 68.2779 27.4017 68.2779C29.5749 66.1052 31.7481 63.9325 33.1969 60.3113C38.9922 37.1355 37.5434 29.8931 49.134 26.2719C54.9292 24.8234 60.0001 27.7204 62.1733 30.6173C62.1733 32.7901 62.1733 33.5143 62.1733 33.5143Z" fill="#A2A2A2"/>
<path d="M181.701 25.5477C181.701 25.5477 180.976 26.2719 175.906 24.8234C175.181 24.8234 174.457 24.8234 173.732 24.8234C170.835 24.8234 169.386 26.9962 165.039 25.5477C164.315 25.5477 163.591 24.8234 162.866 24.0992C161.417 22.6507 161.417 21.2022 161.417 21.2022C161.417 22.6507 162.142 23.375 162.866 24.8234C162.142 26.2719 162.866 28.4446 162.866 30.6174C162.866 34.9628 162.142 39.3083 161.417 43.6537C160.693 45.8265 159.244 47.9992 158.52 50.1719C157.795 53.7931 158.52 58.1386 157.071 61.0356C159.969 63.2083 162.866 63.9325 165.764 66.1053C170.11 69.0022 168.661 74.7962 167.937 79.1416C167.213 84.2113 168.661 90.0052 166.488 95.0749C165.039 98.6962 159.244 103.766 154.898 102.317C152 100.869 154.898 94.3507 157.071 93.6265C158.52 93.6265 160.693 93.6265 160.693 93.6265C162.866 92.9022 161.417 91.4537 161.417 90.0052C160.693 87.1083 163.591 83.4871 163.591 79.8659C163.591 74.0719 160.693 70.4507 154.173 71.1749C147.654 71.8992 140.41 69.0022 135.339 65.381C134.614 64.6568 133.165 63.9325 132.441 63.9325L130.268 63.2083C130.992 63.2083 132.441 63.9325 134.614 66.1053L135.339 66.8295C135.339 66.8295 136.063 66.8295 136.063 67.5537C138.236 69.0022 141.858 70.4507 144.032 71.1749C142.583 74.7962 140.41 77.6931 138.961 81.3143C137.512 84.9355 136.063 89.281 136.063 92.9022C136.063 96.5234 136.063 99.4204 136.063 103.042C136.063 104.49 136.063 105.214 136.063 106.663C136.063 107.387 136.787 108.836 137.512 109.56C138.961 111.008 138.961 112.457 139.685 114.629C140.41 117.526 136.787 117.526 134.614 117.526C133.89 117.526 132.441 117.526 131.717 117.526C130.268 116.802 130.268 116.078 130.268 115.354C130.268 112.457 130.992 112.457 130.268 109.56C128.095 108.111 128.819 106.663 129.543 104.49C130.268 99.4204 132.441 91.4537 131.717 86.384C131.717 84.2113 130.268 82.0386 130.268 80.5901C130.268 77.6931 132.441 75.5204 132.441 72.6234C132.441 71.8992 132.441 71.1749 132.441 70.4507C131.717 70.4507 130.992 71.1749 130.268 71.1749C125.921 72.6234 121.575 74.7962 117.228 75.5204C112.158 76.9689 107.087 76.9689 101.291 76.2447C95.4961 74.7962 91.1497 71.1749 86.0788 69.0022C85.3544 68.278 83.9056 68.278 83.1812 67.5537C83.9056 64.6568 84.63 61.0356 84.63 56.6901C83.9056 61.0356 82.4568 64.6568 81.7324 66.8295C81.7324 67.5537 81.008 68.278 81.008 69.0022C79.5591 72.6234 78.1103 75.5204 75.9371 78.4174C74.4883 79.8659 71.5906 82.0386 70.1418 83.4871C70.1418 84.2113 69.4174 84.2113 69.4174 84.9355C67.9686 87.1083 66.5198 89.281 65.7954 92.178C65.7954 94.3507 65.7954 96.5234 65.7954 98.6962C65.7954 101.593 65.0709 103.766 65.7954 106.663C65.7954 108.111 66.5198 108.836 66.5198 109.56C66.5198 110.284 67.2442 110.284 67.2442 111.008C67.9686 111.733 68.693 112.457 69.4174 113.905C71.5906 116.078 75.9371 122.596 70.8662 123.32C69.4174 124.045 65.7954 123.32 64.3465 121.872C62.8977 121.148 65.0709 116.078 63.6221 116.078C62.8977 116.078 62.1733 115.354 62.1733 115.354V114.629C62.1733 113.905 62.1733 113.905 62.1733 113.181C61.4489 107.387 62.1733 100.869 59.2757 95.7992C57.1024 91.4537 57.8268 89.281 60.0001 84.9355C60.7245 83.4871 60.7245 82.0386 60.7245 80.5901C60.7245 79.1416 60.7245 77.6931 60.7245 76.9689C60.7245 76.2446 60.7245 75.5204 60.0001 74.0719C59.2757 71.8992 57.8268 67.5537 56.378 65.381C57.1024 69.7265 57.8269 72.6234 58.5513 76.2447C57.1024 78.4174 55.6536 80.5901 54.2048 83.4871C52.756 87.1083 50.5828 90.7295 49.8583 94.3507C51.3072 95.075 51.3072 97.9719 50.5828 101.593C50.5828 102.317 49.8583 103.766 49.8583 104.49C49.8583 105.214 50.5828 105.939 51.3072 106.663C52.756 108.111 53.4804 110.284 53.4804 112.457C53.4804 115.354 49.8583 114.629 47.6851 114.629C46.9607 114.629 45.5119 114.629 44.7875 113.905C44.0631 113.181 44.0631 112.457 44.0631 111.733C44.7875 108.836 45.5119 108.836 44.7875 105.939C42.6143 104.49 43.3387 103.042 44.7875 100.869C46.2363 95.7992 49.8583 88.5568 49.8583 83.4871C49.8583 81.3143 49.1339 79.1416 49.1339 77.6931C49.8583 75.5204 52.0316 73.3477 52.756 70.4507C54.2048 63.9325 54.2048 58.1386 54.2048 51.6204C53.4804 48.7234 53.4804 45.8265 54.2048 43.6537C54.9292 40.0325 56.378 37.1356 59.2757 34.2386C60.0001 33.5143 61.4489 32.0659 62.1733 31.3416C67.2442 27.7204 73.7639 25.5477 79.5591 26.9962C83.1812 27.7204 86.0788 29.8931 88.9765 31.3416C96.945 35.6871 107.811 38.584 116.504 36.4113C124.473 34.2386 128.819 29.1689 130.268 26.9962L130.992 26.2719C134.614 21.2022 138.236 15.4083 142.583 11.0628C147.654 5.99313 155.622 3.82041 162.866 5.26889C164.315 5.26889 165.764 5.99313 167.213 6.71737C167.937 7.44162 169.386 8.16586 170.11 8.8901L170.835 9.61434C171.559 10.3386 171.559 11.0628 172.284 11.7871C175.906 16.1325 181.701 18.3053 184.598 23.3749C185.323 22.6507 181.701 25.5477 181.701 25.5477Z" fill="#666666"/>
<path d="M8.56702 61.0356C8.56702 61.0356 10.7402 61.7598 10.7402 62.4841C12.9135 63.2083 14.3623 62.4841 15.8111 61.7598C22.3308 58.8629 24.504 50.8962 27.4017 45.1023C28.8505 42.2053 30.2993 38.5841 31.7481 35.6871C34.6458 29.8932 38.9922 24.0992 49.8584 24.8235C31.7481 19.7538 25.9528 38.5841 25.2284 39.3083C23.7796 42.2053 22.3308 45.1023 20.882 47.9992C19.4332 50.8962 17.9843 54.5174 15.8111 57.4144C14.3623 59.5871 12.1891 61.0356 8.56702 61.0356Z" fill="#A2A2A2"/>
<path d="M172.284 5.26888L171.559 4.54464C168.661 3.09616 166.488 1.64767 163.591 0.923431C159.969 0.199188 156.347 0.199188 152.724 0.923431C152 0.923431 151.276 0.92343 151.276 1.64767L152.724 3.09616C149.827 3.09616 146.205 3.8204 144.032 5.99313C143.307 6.71737 142.583 6.71737 141.858 7.44161L140.41 8.8901C140.41 8.8901 143.307 8.8901 144.032 8.8901C144.032 8.8901 134.614 16.1325 129.543 23.3749L135.339 24.8234H128.819C126.646 26.9962 124.472 29.1689 122.299 31.3416L128.819 32.7901C128.819 32.7901 123.024 32.7901 120.126 32.7901L115.055 34.9628C115.055 34.9628 119.402 37.8598 126.646 36.4113C133.89 34.9628 138.961 25.5477 141.858 20.478C142.583 19.0295 144.032 17.581 144.756 16.1325C148.378 11.0628 152.724 7.44161 159.244 6.71737C162.866 5.99313 166.488 5.99313 170.835 8.16586C170.835 6.71737 171.559 5.99313 172.284 5.26888Z" fill="#A2A2A2"/>
<path d="M165.764 8.16589C165.764 8.16589 167.937 5.26892 170.11 2.37195V1.64771C167.937 1.64771 165.764 3.09619 163.591 3.82043C162.866 4.54467 162.866 5.99316 163.591 6.7174L165.764 8.16589Z" fill="#666666"/>
<path d="M59.2757 107.387C56.378 107.387 55.6536 108.111 55.6536 111.008V132.736C55.6536 135.633 56.378 136.357 59.2757 136.357V137.081C57.8269 137.081 54.9292 137.081 52.756 137.081C49.8583 137.081 47.6851 137.081 45.5119 137.081V136.357C48.4095 136.357 49.1339 135.633 49.1339 132.736V121.872H36.819V132.736C36.819 135.633 37.5434 136.357 40.441 136.357V137.081C38.9922 137.081 36.0946 137.081 33.9213 137.081C31.0237 137.081 28.1261 137.081 26.6772 137.081V136.357C29.5749 137.081 29.5749 136.357 29.5749 133.46V111.733C29.5749 108.111 29.5749 107.387 26.6772 107.387V106.663C28.1261 106.663 31.0237 106.663 33.9213 106.663C36.0946 106.663 38.9922 106.663 40.441 106.663V107.387C37.5434 107.387 36.819 108.111 36.819 111.008V121.872H48.4095V111.733C48.4095 108.836 47.6851 108.111 44.7875 108.111V107.387C46.2363 107.387 49.1339 107.387 52.0316 107.387C54.9292 107.387 57.1024 107.387 58.5513 107.387H59.2757Z" fill="#A3A3A3"/>
<path d="M59.2757 106.663V107.387C56.378 107.387 55.6536 108.111 55.6536 111.008V132.736C55.6536 135.633 56.378 136.357 59.2757 136.357V137.081C57.8269 137.081 54.9292 137.081 52.756 137.081C49.8584 137.081 47.6851 137.081 45.5119 137.081V136.357C48.4095 136.357 49.1339 135.633 49.1339 132.736V121.872H36.819V132.736C36.819 135.633 37.5434 136.357 40.441 136.357V137.081C38.9922 137.081 36.0946 137.081 33.9213 137.081C31.0237 137.081 28.1261 137.081 26.6773 137.081V136.357C29.5749 137.081 29.5749 136.357 29.5749 133.46V111.733C29.5749 108.111 29.5749 107.387 26.6773 107.387V106.663C28.1261 106.663 31.0237 106.663 33.9213 106.663C36.0946 106.663 38.9922 106.663 40.441 106.663V107.387C37.5434 107.387 36.819 108.111 36.819 111.008V121.872H48.4095V111.733C48.4095 108.836 47.6851 108.111 44.7875 108.111V107.387C46.2363 107.387 49.1339 107.387 52.0316 107.387C54.9292 106.663 57.8269 106.663 59.2757 106.663ZM60.0001 105.214H58.5513C57.1025 105.214 54.9292 105.214 52.0316 105.214C49.1339 105.214 46.9607 105.214 44.7875 105.214H43.3387V106.663V107.387V108.836H44.7875C46.2363 108.836 46.2363 108.836 46.2363 108.836C46.2363 108.836 46.2363 109.56 46.2363 111.008V120.424H38.2678V111.008C38.2678 109.56 38.2678 108.836 38.2678 108.836C38.2678 108.836 38.9922 108.836 39.7166 108.836H41.1654V107.387V106.663V105.214H39.7166C38.2678 105.214 35.3702 105.214 33.1969 105.214C30.2993 105.214 27.4017 105.214 25.9528 105.214H24.504V106.663V107.387V108.836H25.9528C27.4017 108.836 27.4017 108.836 27.4017 108.836C27.4017 108.836 27.4017 109.56 27.4017 111.008V132.736C27.4017 134.184 27.4017 134.908 27.4017 134.908C27.4017 134.908 26.6773 134.908 25.9528 134.908H24.504V136.357V137.081V138.53H25.9528C27.4017 138.53 29.5749 138.53 33.1969 138.53C36.0946 138.53 38.2678 138.53 39.7166 138.53H41.1654V137.081V136.357V134.908H39.7166C38.2678 134.908 38.2678 134.908 38.2678 134.908C38.2678 134.908 38.2678 134.184 38.2678 132.736V123.321H46.9607V132.736C46.9607 134.184 46.9607 134.908 46.9607 134.908C46.9607 134.908 46.2363 134.908 45.5119 134.908H44.0631V136.357V137.081V138.53H45.5119C46.9607 138.53 49.8584 138.53 52.756 138.53C55.6536 138.53 57.8269 138.53 59.2757 138.53H60.7245V137.081V136.357V134.908H59.2757C57.8269 134.908 57.8269 134.908 57.8269 134.908C57.8269 134.908 57.8269 134.184 57.8269 132.736V111.008C57.8269 109.56 57.8269 108.836 57.8269 108.836C57.8269 108.836 58.5513 108.836 59.2757 108.836H60.7245V107.387V106.663V105.214H60.0001Z" fill="white"/>
<path d="M93.3229 121.872C93.3229 132.011 86.8032 138.53 77.3859 138.53C67.9685 138.53 61.4489 132.736 61.4489 122.596C61.4489 112.457 67.9685 105.939 77.3859 105.939C86.8032 105.939 93.3229 111.733 93.3229 121.872ZM69.4174 122.596C69.4174 132.011 73.0394 137.805 78.1103 137.805C83.1811 137.805 86.0788 131.287 86.0788 121.872C86.0788 112.457 82.4567 106.663 77.3859 106.663C72.315 106.663 69.4174 113.181 69.4174 122.596Z" fill="#A3A3A3"/>
<path d="M77.3859 105.939C86.8032 105.939 93.3229 111.733 93.3229 121.872C93.3229 132.011 86.8032 138.53 77.3859 138.53C67.9686 138.53 61.4489 132.736 61.4489 122.596C62.1733 112.457 68.693 105.939 77.3859 105.939ZM78.1103 137.805C83.1812 137.805 86.0788 131.287 86.0788 121.872C86.0788 112.457 82.4568 106.663 77.3859 106.663C72.315 106.663 69.4174 113.181 69.4174 122.596C69.4174 132.011 73.0394 137.805 78.1103 137.805ZM77.3859 104.49C75.2127 104.49 72.315 105.214 70.8662 105.939C68.693 106.663 67.2442 108.111 65.0709 109.56C63.6221 111.008 62.1733 113.181 61.4489 115.354C60.7245 117.527 60.0001 119.699 60.0001 122.596C60.0001 127.666 61.4489 132.011 64.3465 135.633C67.2442 138.53 71.5906 139.978 76.6615 139.978C86.8032 139.978 94.0473 132.736 94.0473 121.872C94.0473 116.802 92.5985 112.457 88.9764 108.836C86.8032 105.939 82.4568 104.49 77.3859 104.49ZM78.1103 136.357C76.6615 136.357 74.4883 134.908 73.0394 132.736C71.5906 129.839 70.8662 126.218 70.8662 121.872C70.8662 117.527 71.5906 113.905 73.0394 111.008C74.4883 108.111 76.6615 107.387 77.3859 107.387C78.8347 107.387 81.0079 108.836 82.4568 111.008C83.9056 113.905 84.63 117.527 84.63 121.872C84.63 126.218 83.9056 129.839 82.4568 132.736C81.0079 135.633 78.8347 136.357 78.1103 136.357Z" fill="white"/>
<path d="M126.646 136.357C125.197 138.53 123.024 139.254 120.85 139.254C117.953 139.254 115.78 137.805 115.055 134.184L113.606 129.114C112.882 125.493 112.158 122.596 109.26 122.596H106.362V132.736C106.362 135.633 107.087 136.357 109.984 136.357V137.081C108.535 137.081 105.638 137.081 103.465 137.081C100.567 137.081 97.6693 137.081 96.2205 137.081V136.357C99.1182 136.357 99.8426 135.633 99.8426 132.736V111.008C99.8426 108.111 99.1182 107.387 96.2205 107.387V106.663C97.6693 106.663 100.567 106.663 102.74 106.663C105.638 106.663 108.535 106.663 109.984 106.663C117.953 106.663 122.299 109.56 122.299 114.63C122.299 118.251 120.126 122.596 112.158 123.321C117.228 124.045 120.126 125.493 120.85 129.114L121.575 133.46C122.299 135.633 122.299 136.357 123.748 136.357C124.472 136.357 125.197 136.357 126.646 136.357ZM106.362 111.008V121.872H108.535C113.606 121.872 115.055 118.251 115.055 114.63C115.055 110.284 113.606 107.387 109.26 107.387C107.087 107.387 106.362 108.111 106.362 111.008Z" fill="#A3A3A3"/>
<path d="M96.2205 106.663C97.6694 106.663 100.567 106.663 102.74 106.663C105.638 106.663 108.536 106.663 109.984 106.663C117.953 106.663 122.299 109.56 122.299 114.63C122.299 118.251 120.126 122.596 112.158 123.321C117.228 124.045 120.126 125.493 120.85 129.114L121.575 133.46C122.299 135.633 122.299 136.357 123.748 136.357C124.473 136.357 125.197 136.357 125.197 135.633L125.921 136.357C124.473 138.53 122.299 139.254 120.126 139.254C117.228 139.254 115.055 137.805 114.331 134.184L113.606 129.114C112.882 125.493 112.158 122.596 109.26 122.596H106.362V132.736C106.362 135.633 107.087 136.357 109.984 136.357V137.081C108.536 137.081 105.638 137.081 103.465 137.081C100.567 137.081 97.6694 137.081 96.2205 137.081V136.357C99.1182 136.357 99.8426 135.633 99.8426 132.736V111.008C99.8426 108.111 99.1182 107.387 96.2205 107.387V106.663ZM106.362 122.596H108.536C113.606 122.596 115.055 118.975 115.055 115.354C115.055 111.008 113.606 108.111 109.26 108.111C107.087 108.111 106.362 108.836 106.362 111.733V122.596ZM94.7717 105.214V106.663V107.387V108.836H96.2205C97.6694 108.836 97.6694 108.836 97.6694 108.836C97.6694 108.836 97.6694 109.56 97.6694 111.008V132.736C97.6694 134.184 97.6694 134.908 97.6694 134.908C97.6694 134.908 96.945 134.908 96.2205 134.908H94.7717V136.357V137.081V138.53H96.2205C97.6694 138.53 99.8426 138.53 103.465 138.53C106.362 138.53 108.536 138.53 109.984 138.53H111.433V137.081V136.357V134.908H109.984C108.536 134.908 108.536 134.908 108.536 134.908C108.536 134.908 108.536 134.184 108.536 132.736V124.045H109.26C109.984 124.045 110.709 124.045 110.709 124.769C111.433 125.493 111.433 126.942 112.158 129.114L112.882 133.46C113.606 135.633 114.331 137.081 115.78 137.805C117.228 138.53 118.677 139.254 120.85 139.254C123.748 139.254 125.921 138.53 128.095 136.357L128.819 135.633L128.095 134.908L127.37 134.184L126.646 133.46L125.921 134.908C125.197 135.633 125.197 135.633 125.197 135.633C125.197 135.633 125.197 134.908 124.473 133.46L123.748 129.114C123.024 126.942 122.299 125.493 120.85 124.045C120.85 124.045 120.126 123.321 119.402 123.321C120.85 122.596 121.575 121.872 122.299 121.148C123.748 119.699 124.473 117.527 124.473 114.63C124.473 111.008 123.024 105.214 110.709 105.214C109.984 105.214 109.26 105.214 108.536 105.214C107.087 105.214 105.638 105.214 103.465 105.214C100.567 105.214 98.3938 105.214 96.945 105.214H94.7717ZM107.811 121.148V111.733C107.811 110.284 107.811 109.56 107.811 109.56C107.811 109.56 107.811 109.56 109.26 109.56C111.433 109.56 112.158 110.284 112.158 111.008C112.882 111.733 112.882 113.181 112.882 115.354C112.882 117.527 112.882 118.975 112.158 119.699C112.158 119.699 111.433 121.148 107.811 121.148Z" fill="white"/>
<path d="M144.756 108.111C145.48 108.836 146.205 108.836 146.205 108.836C146.929 108.836 146.929 108.111 146.929 106.663H147.654C147.654 108.111 147.654 110.284 147.654 116.802H146.929C146.929 112.457 144.032 107.387 139.685 107.387C136.787 107.387 134.614 108.836 134.614 111.733C134.614 115.354 137.512 116.802 142.583 120.424C146.929 123.321 149.827 125.493 149.827 130.563C149.827 136.357 144.756 139.254 138.961 139.254C135.339 139.254 133.165 138.53 131.717 137.805C130.992 136.357 130.268 136.357 129.543 136.357C128.819 136.357 128.819 137.081 128.819 138.53H128.095C128.095 136.357 128.095 133.46 128.095 126.218H128.819C129.543 132.011 130.992 137.081 136.787 137.081C139.685 137.081 142.583 135.633 142.583 132.011C142.583 128.39 139.685 126.218 136.063 124.045C131.717 121.148 128.095 118.975 128.095 113.905C128.095 108.111 133.165 105.939 138.236 105.939C141.134 105.939 143.307 106.663 144.756 108.111Z" fill="#A3A3A3"/>
<path d="M138.236 105.939C141.858 105.939 143.307 106.663 144.756 107.387C145.48 108.111 146.205 108.111 146.205 108.111C146.929 108.111 146.929 107.387 146.929 105.939H147.654C147.654 107.387 147.654 109.56 147.654 116.078H146.929C146.929 111.733 144.032 106.663 139.685 106.663C136.787 106.663 134.614 108.111 134.614 111.008C134.614 114.63 137.512 116.078 142.583 119.699C146.929 122.596 149.827 124.769 149.827 129.839C149.827 135.633 144.756 138.53 138.961 138.53C135.339 138.53 133.165 137.805 131.717 137.081C130.992 136.357 130.268 136.357 129.543 136.357C128.819 136.357 128.819 137.081 128.819 138.53H128.095C128.095 136.357 128.095 133.46 128.095 126.218H128.819C129.543 132.011 130.992 137.081 136.787 137.081C139.685 137.081 142.583 135.633 142.583 132.011C142.583 128.39 139.685 126.218 136.063 124.045C131.717 121.148 128.095 118.975 128.095 113.905C128.095 108.836 133.165 105.939 138.236 105.939ZM138.236 104.49C135.339 104.49 132.441 105.214 130.268 106.663C128.095 108.111 126.646 111.008 126.646 113.905C126.646 119.699 130.992 122.596 135.339 125.493C137.512 126.942 138.961 127.666 139.685 129.114C140.41 130.563 141.134 131.287 141.134 132.736C141.134 134.184 140.41 134.908 139.685 135.633C139.685 135.633 138.236 136.357 136.787 136.357C134.614 136.357 133.165 135.633 131.717 133.46C130.992 132.011 130.268 129.114 129.543 126.218V124.769H128.095H127.37H125.921V126.218C125.921 133.46 125.921 136.357 125.921 137.805V139.254H127.37H128.095H129.543V137.805V137.081C130.992 137.805 133.165 138.53 137.512 138.53C141.134 138.53 144.032 137.805 146.205 136.357C148.378 134.908 149.827 132.011 149.827 128.39C149.827 125.493 149.102 123.321 147.654 121.872C146.205 120.424 144.032 118.975 141.858 117.527C141.134 117.527 141.134 116.802 140.41 116.802C136.063 113.905 134.614 113.181 134.614 110.284C134.614 109.56 134.614 108.836 135.339 108.111C136.063 107.387 136.787 107.387 138.236 107.387C139.685 107.387 141.134 108.111 142.583 109.56C143.307 111.008 144.032 113.181 144.756 115.354V116.802H146.205H146.929H148.378V115.354C148.378 109.56 148.378 107.387 148.378 105.214V103.766H146.929H146.205H145.48V105.214V105.939C143.307 105.939 141.858 104.49 138.236 104.49Z" fill="white"/>
<path d="M177.354 137.805C174.457 137.805 170.11 137.805 167.213 137.805C164.315 137.805 157.795 137.805 152.724 137.805V137.081C155.622 137.081 156.347 136.357 156.347 133.46V111.733C156.347 108.836 155.622 108.111 152.724 108.111V107.387C157.795 107.387 164.315 107.387 167.213 107.387C170.11 107.387 173.732 107.387 176.63 107.387C176.63 110.284 176.63 112.457 176.63 113.905C176.63 115.354 176.63 116.078 176.63 116.802H175.906C175.181 110.284 173.008 108.111 168.662 108.111H166.488C163.591 108.111 163.591 108.836 163.591 111.008V121.872H165.039C168.662 121.872 170.11 118.251 170.11 116.078H170.835C170.835 118.251 170.835 118.975 170.835 120.424C170.835 121.148 170.835 121.872 170.835 122.596C170.835 124.045 170.835 125.493 170.835 129.114H170.11C169.386 126.218 167.937 123.321 165.039 123.321H163.591V134.184C163.591 137.081 164.315 137.081 166.488 137.081H168.662C172.284 137.081 175.181 134.908 176.63 127.666H177.354C177.354 128.39 177.354 129.839 177.354 131.287C177.354 132.736 177.354 135.633 177.354 137.805Z" fill="#A3A3A3"/>
<path d="M176.63 106.663C176.63 109.56 176.63 111.733 176.63 113.181C176.63 114.63 176.63 115.354 176.63 116.078H175.906C175.181 109.56 173.008 107.387 168.662 107.387H166.488C163.591 107.387 163.591 108.111 163.591 110.284V121.872H165.039C168.662 121.872 170.11 118.251 170.11 116.078H170.835C170.835 118.251 170.835 118.975 170.835 120.424C170.835 121.148 170.835 121.872 170.835 122.596C170.835 124.045 170.835 125.493 170.835 129.114H170.11C169.386 126.218 167.937 123.321 165.039 123.321H163.591V134.184C163.591 137.081 164.315 137.081 166.488 137.081H168.662C172.284 137.081 175.181 134.908 176.63 127.666H177.354C177.354 128.39 177.354 129.839 177.354 131.287C177.354 132.736 177.354 135.633 177.354 137.805C174.457 137.805 170.11 137.805 167.213 137.805C164.315 137.805 157.795 137.805 152.725 137.805V137.081C155.622 137.081 156.347 136.357 156.347 133.46V111.733C156.347 108.836 155.622 108.111 152.725 108.111V107.387C157.795 107.387 164.315 107.387 167.213 107.387C170.11 106.663 173.732 106.663 176.63 106.663ZM178.079 105.214H176.63C173.732 105.214 170.11 105.214 167.213 105.214C164.315 105.214 157.795 105.214 152.725 105.214H151.276V106.663V107.387V108.836H152.725C154.173 108.836 154.173 108.836 154.173 108.836C154.173 108.836 154.173 109.56 154.173 111.008V132.736C154.173 134.184 154.173 134.908 154.173 134.908C154.173 134.908 153.449 134.908 152.725 134.908H151.276V136.357V137.081V138.53H152.725C157.795 138.53 164.315 138.53 167.213 138.53C170.11 138.53 174.457 138.53 177.354 138.53H178.803V137.081C178.803 134.184 178.803 131.287 178.803 130.563C178.803 129.114 178.803 127.666 178.803 126.942V125.493H177.354H176.63H175.181V126.942C174.457 129.839 173.732 132.011 173.008 133.46C172.284 134.184 170.835 134.908 169.386 134.908H167.213C166.488 134.908 165.764 134.908 165.764 134.908C165.764 134.908 165.764 134.184 165.764 133.46V124.045C167.213 124.045 169.386 124.769 170.11 128.39V129.839H171.559H172.284H173.732V128.39C173.732 124.769 173.732 123.321 173.732 121.872V121.148C173.732 120.424 173.732 120.424 173.732 119.699C173.732 118.975 173.732 117.527 173.732 115.354V113.905H172.284H171.559H170.11V115.354C170.11 116.802 169.386 117.527 168.662 118.975C167.937 119.699 167.213 120.424 165.764 120.424V111.008C165.764 109.56 165.764 109.56 165.764 109.56C165.764 109.56 166.488 109.56 167.213 109.56H169.386C170.835 109.56 172.284 110.284 173.008 111.008C173.732 112.457 174.457 113.905 175.181 116.802V118.251H176.63H177.354H178.803V116.802C178.803 116.078 178.803 115.354 178.803 113.905C178.803 112.457 178.803 110.284 178.803 107.387L178.079 105.214Z" fill="white"/>
</svg>
