<svg width="103" height="110" viewBox="0 0 103 110" fill="none" xmlns="http://www.w3.org/2000/svg">
<path d="M44.9626 54.6311L45.6871 52.4584C45.6871 52.4584 45.6871 52.4584 45.6871 51.7341V51.0099C45.6871 50.2857 46.4115 48.8372 47.1359 47.3887C47.8603 45.9402 48.5847 43.7675 49.3091 41.5948C50.0336 39.422 50.7579 36.5251 52.2067 34.3523C53.6556 31.4554 55.1044 28.5584 56.5532 25.6614C57.2777 24.2129 58.7264 22.7645 59.4508 21.316C60.8997 19.8675 62.3485 18.419 63.7973 16.9705C64.5217 16.2463 64.5217 16.2463 65.2461 15.522C65.2461 15.522 65.9705 15.522 65.9705 14.7978H66.6949H67.4194C68.1438 14.0736 69.5926 13.3493 71.0414 13.3493C73.9391 12.6251 76.8367 11.9008 79.7343 12.6251H80.4587H81.1831H81.9076C82.632 12.6251 83.3564 13.3493 83.3564 13.3493C84.8052 14.0735 85.5296 14.7978 86.254 15.522C88.4272 16.9705 89.876 18.419 91.3249 19.8675L92.0493 20.5917L92.7737 21.316C92.7737 22.0402 93.4981 22.0402 93.4981 22.7645C93.4981 23.4887 94.2225 23.4887 94.2225 24.2129C94.9469 24.9372 94.9469 26.3857 95.6713 27.1099C95.6713 27.8342 95.6714 28.5584 96.3958 28.5584V29.2826V30.0069V30.7311C96.3958 32.1796 96.3958 32.9039 96.3958 34.3523C96.3958 35.0766 96.3957 35.8008 95.6713 35.8008V36.5251C95.6713 36.5251 95.6713 37.2493 94.9469 37.2493C94.2225 37.9735 93.4981 39.422 92.7737 40.1463C92.7737 40.1463 92.7737 40.8705 92.0493 40.8705C91.3249 40.8705 91.3249 41.5948 90.6005 41.5948C89.1516 43.0432 87.7028 43.7675 86.254 44.4917C84.8052 45.216 83.3564 45.9402 81.9076 46.6645C79.0099 48.1129 76.1123 48.8372 73.2146 49.5614C70.317 50.2857 68.1438 51.0099 65.9705 51.0099C63.7973 51.7342 61.6241 51.7341 60.1753 51.7341C57.2777 52.4584 55.1044 52.4584 55.1044 52.4584L44.9626 54.6311ZM64.5217 51.0099C66.695 50.2857 69.5926 49.5614 71.7658 48.1129C73.9391 46.6645 76.8367 45.9402 79.7343 44.4917C81.1831 43.7675 82.632 43.0432 83.3564 41.5948C84.8052 40.8705 85.5296 39.422 86.254 38.6978L86.9784 37.9735C86.9784 37.9735 86.9784 37.9735 86.9784 37.2493C86.9784 36.5251 87.7028 35.8008 87.7028 35.8008C87.7028 35.8008 87.7028 35.8008 87.7028 35.0766C87.7028 35.0766 87.7028 35.0766 87.7028 34.3523V33.6281C87.7028 32.9038 87.7028 32.9038 87.7028 32.1796C87.7028 32.1796 87.7028 32.1796 87.7028 31.4554C87.7028 31.4554 87.7028 30.7311 86.9784 30.7311C86.9784 30.0069 86.254 29.2826 85.5296 29.2826L84.8052 28.5584L84.0808 27.8342L83.3564 27.1099L82.632 26.3857C81.1832 25.6614 80.4587 24.2129 79.0099 24.2129C78.2855 24.2129 77.5611 23.4887 77.5611 23.4887H76.8367C76.1123 23.4887 76.1123 23.4887 76.1123 23.4887C76.1123 23.4887 76.1123 23.4887 75.3879 23.4887L74.6635 24.2129C74.6635 24.2129 74.6634 24.9372 73.939 24.9372C73.939 25.6614 73.2146 25.6614 73.2146 26.3857C73.2146 27.1099 72.4902 27.8342 72.4902 27.8342C71.7658 29.2826 71.0414 30.0069 71.0414 31.4554C70.317 33.6281 69.5926 36.5251 68.8682 38.6978C68.1438 40.8705 67.4194 43.0432 67.4194 45.216C64.5217 48.1129 64.5217 49.5614 64.5217 51.0099C63.7973 52.4584 63.7973 53.9069 63.7973 54.6311C63.7973 55.3554 63.7973 55.3554 63.7973 55.3554L64.5217 51.0099Z" fill="white"/>
<path d="M32.8288 59.9106C32.1044 59.9106 32.1044 59.9106 32.8288 59.9106C29.9312 60.6349 27.758 62.0834 25.5847 62.8076C23.4115 64.2561 20.5138 64.9803 17.6162 66.4288C16.1674 67.1531 14.7186 67.8773 13.9941 69.3258C12.5453 70.05 11.821 71.4985 11.0965 72.2228L10.3721 72.947C10.3721 72.947 10.3721 72.947 10.3721 73.6712C10.3721 74.3955 9.6477 75.1197 9.6477 75.1197C9.6477 75.1197 9.6477 75.1197 9.6477 75.844C9.6477 75.844 9.6477 75.844 9.6477 76.5682V77.2925C9.6477 78.0167 9.6477 78.0167 9.6477 78.7409C9.6477 78.7409 9.6477 78.7409 9.6477 79.4652C9.6477 79.4652 9.64769 80.1894 10.3721 80.1894C10.3721 80.9137 11.0965 81.6379 11.8209 81.6379C12.5454 83.0864 13.9942 83.8106 14.7186 84.5349L15.443 85.2591H16.1674L16.8918 85.9834C16.8918 85.9834 17.6162 85.9834 17.6162 86.7076C18.3406 86.7076 19.065 87.4319 19.065 87.4319H19.7894C20.5138 87.4319 20.5138 87.4319 20.5138 87.4319C20.5138 87.4319 20.5138 87.4319 21.2382 87.4319L21.9627 86.7076C21.9627 86.7076 21.9627 85.9834 22.6871 85.9834C22.6871 85.2591 23.4115 85.2591 23.4115 84.5349C23.4115 83.8106 24.1359 83.0864 24.1359 83.0864C24.8603 81.6379 25.5847 80.9137 25.5847 79.4652C26.3091 77.2925 27.0335 74.3955 27.7579 72.2228C28.4823 70.05 29.2068 67.8773 29.2068 65.7046C32.1044 63.5319 32.1044 61.3591 32.8288 59.9106ZM51.6635 56.2894L50.9391 58.4622V59.1864C50.9391 59.9106 50.2146 61.3591 49.4902 62.8076C48.7658 64.2561 48.0414 66.4288 47.317 68.6015C46.5926 70.7743 45.8682 73.6712 44.4194 75.844C42.9706 78.7409 41.5217 81.6379 40.0729 84.5349C39.3485 85.9834 37.8997 87.4318 37.1753 88.8803C35.7265 90.3288 34.2776 91.7773 32.8288 93.2258C32.1044 93.95 32.1044 93.95 31.38 94.6743C31.38 94.6743 30.6556 94.6743 30.6556 95.3985H29.9312H29.2068C28.4824 96.1228 27.0336 96.847 25.5847 96.847C22.6871 97.5712 19.7894 98.2955 16.8918 97.5712H16.1674H15.443H14.7186C13.9942 97.5712 13.2697 96.847 13.2697 96.847C11.8209 96.1228 11.0965 95.3985 10.3721 94.6743C9.64769 94.6743 9.64771 93.95 8.9233 93.95C8.19889 93.2258 8.19891 93.2258 7.4745 92.5015L6.75005 91.7773L6.02565 91.0531C4.57683 89.6046 3.12801 87.4318 2.4036 85.9834C1.67919 85.2591 1.67922 83.8106 0.954806 83.0864C0.954806 82.3622 0.954817 81.6379 0.230408 81.6379V80.9137V80.1894V79.4652C0.230408 78.0167 0.230408 77.2925 0.230408 75.844C0.230408 75.1197 0.230397 74.3955 0.954806 74.3955V73.6712C0.954806 73.6712 0.954795 72.947 1.6792 72.947C2.40361 72.2228 3.12805 70.7743 3.85245 70.05C3.85245 70.05 3.85244 69.3258 4.57685 69.3258C5.30126 69.3258 5.30124 68.6015 6.02565 68.6015C7.47447 67.1531 8.92328 66.4288 10.3721 65.7046C11.8209 64.9803 13.2698 64.2561 14.7186 63.5319C17.6162 62.0834 20.5138 61.3591 23.4115 60.6349C26.3091 59.9106 28.4824 59.1864 30.6556 59.1864C32.8288 58.4622 35.0021 58.4622 36.4509 58.4622C39.3485 57.7379 41.5217 57.7379 41.5217 57.7379L51.6635 56.2894Z" fill="white"/>
<path d="M49.8835 47.3553L52.0567 48.0796C52.0567 48.0796 52.0568 48.0796 52.7812 48.0796H53.5056C54.23 48.0796 55.6788 48.8038 57.1276 49.5281C58.5764 50.2523 60.7496 50.9766 62.9229 51.7008C65.0961 52.425 67.9937 53.1493 70.1669 54.5978C73.0646 56.0463 75.9623 57.4947 78.8599 58.9432C80.3087 59.6675 81.7575 61.116 83.2063 61.8402C84.6552 63.2887 86.104 64.7372 87.5528 66.1856C88.2772 66.9099 88.2772 66.9099 89.0016 67.6341C89.0016 67.6341 89.0016 68.3584 89.726 68.3584V69.0826V69.8069C90.4504 70.5311 91.1748 71.9796 91.1748 73.4281C91.8992 76.325 92.6236 79.222 91.8992 82.119V82.8432V83.5675V84.2917C91.8992 85.016 91.1748 85.7402 91.1748 85.7402C90.4504 87.1887 89.726 87.9129 89.0016 88.6372C87.5528 90.8099 86.104 92.2584 84.6551 93.7069L83.9307 94.4311L83.2063 95.1553C82.4819 95.1553 82.4819 95.8796 81.7575 95.8796C81.0331 95.8796 81.0331 96.6038 80.3087 96.6038C79.5843 97.3281 78.1355 97.3281 77.411 98.0523C76.6866 98.0523 75.9622 98.0523 75.9622 98.7766H75.2378H74.5134H73.789C72.3402 98.7766 71.6158 98.7766 70.1669 98.7766C69.4425 98.7766 68.7181 98.7766 68.7181 98.0523H67.9938C67.9938 98.0523 67.2694 98.0523 67.2694 97.3281C66.5449 96.6038 65.0961 95.8796 64.3717 95.1553C64.3717 95.1553 63.6473 95.1553 63.6473 94.4311C63.6473 93.7069 62.9229 93.7069 62.9229 92.9826C61.474 91.5341 60.7497 90.0856 60.0253 88.6372C59.3008 87.1887 58.5764 85.7402 57.852 84.2917C56.4032 81.3947 55.6788 78.4978 54.9544 75.6008C54.23 72.7038 53.5056 70.5311 53.5056 68.3584C52.7812 66.1856 52.7812 64.0129 52.7812 62.5644C52.0568 59.6675 52.0567 57.4947 52.0567 57.4947L49.8835 47.3553ZM53.5056 66.9099C54.23 69.0826 54.9544 71.9796 56.4032 74.1523C57.852 76.325 58.5764 79.222 60.0253 82.119C60.7497 83.5675 61.474 85.0159 62.9229 85.7402C63.6473 87.1887 65.0961 87.9129 65.8205 88.6372L66.5449 89.3614C66.5449 89.3614 66.5449 89.3614 67.2694 89.3614C67.9938 89.3614 68.7181 90.0856 68.7181 90.0856C68.7181 90.0856 68.7181 90.0856 69.4425 90.0856C69.4425 90.0856 69.4425 90.0856 70.1669 90.0856H70.8914C71.6158 90.0856 71.6158 90.0856 72.3402 90.0856C72.3402 90.0856 72.3402 90.0856 73.0646 90.0856C73.0646 90.0856 73.789 90.0856 73.789 89.3614C74.5134 89.3614 75.2378 88.6372 75.2378 87.9129L75.9622 87.1887L76.6866 86.4644L77.411 85.7402L78.1355 85.0159C78.8599 83.5675 80.3087 82.8432 80.3087 81.3947C80.3087 80.6705 81.0331 79.9463 81.0331 79.9463V79.222C81.0331 78.4978 81.0331 78.4978 81.0331 78.4978C81.0331 78.4978 81.0331 78.4978 81.0331 77.7735L80.3087 77.0493C80.3087 77.0493 79.5843 77.0493 79.5843 76.325C78.8599 76.325 78.8599 75.6008 78.1355 75.6008C77.4111 75.6008 76.6866 74.8766 76.6866 74.8766C75.2378 74.1523 74.5134 73.4281 73.0646 73.4281C70.8914 72.7038 67.9937 71.9796 65.8205 71.2553C63.6473 70.5311 61.474 69.8069 59.3008 69.8069C56.4032 66.9099 54.9544 66.9099 53.5056 66.9099C52.0567 66.1856 50.6079 66.1856 49.8835 66.1856C49.1591 66.1856 49.1591 66.1856 49.1591 66.1856L53.5056 66.9099Z" fill="white"/>
<path d="M43.1206 45.459C43.1206 44.7347 43.1206 44.7347 43.1206 45.459C42.3962 42.562 40.9474 40.3893 40.223 38.2165C38.7742 36.0438 38.0498 33.1468 36.6009 30.2499C35.8765 28.8014 35.1521 27.3529 33.7033 26.6287C32.9789 25.1802 31.53 24.4559 30.8056 23.7317L30.0812 23.0074C30.0812 23.0074 30.0812 23.0074 29.3568 23.0074C28.6324 23.0074 27.908 22.2832 27.908 22.2832C27.908 22.2832 27.908 22.2832 27.1836 22.2832C27.1836 22.2832 27.1836 22.2832 26.4592 22.2832H25.7348C25.0104 22.2832 25.0103 22.2832 24.2859 22.2832C24.2859 22.2832 24.286 22.2832 23.5615 22.2832C23.5615 22.2832 22.8371 22.2832 22.8371 23.0074C22.1127 23.0074 21.3883 23.7317 21.3883 24.4559C19.9395 25.1802 19.2151 26.6286 18.4907 27.3529L17.7662 28.0771V28.8014L17.0418 29.5256C17.0418 29.5256 17.0419 30.2499 16.3174 30.2499C16.3174 30.9741 15.5931 31.6983 15.5931 31.6983V32.4226C15.5931 33.1468 15.5931 33.1468 15.5931 33.1468C15.5931 33.1468 15.5931 33.1468 15.5931 33.8711L16.3174 34.5953C16.3174 34.5953 17.0418 34.5953 17.0418 35.3196C17.7663 35.3196 17.7663 36.0438 18.4907 36.0438C19.2151 36.0438 19.9395 36.768 19.9395 36.768C21.3883 37.4923 22.1127 38.2165 23.5615 38.2165C25.7348 38.9408 28.6324 39.665 30.8056 40.3893C32.9789 41.1135 35.1521 41.8377 37.3253 41.8377C40.223 44.7347 41.6718 44.7347 43.1206 45.459ZM46.7426 64.2893L44.5694 63.565H43.845C43.1206 63.565 41.6718 62.8408 40.223 62.1165C38.7742 61.3923 36.6009 60.668 34.4277 59.9438C32.2545 59.2196 29.3568 58.4953 27.1836 57.0468C24.286 55.5984 21.3883 54.1499 18.4907 52.7014C17.0419 51.9771 15.593 50.5287 14.1442 49.8044C12.6954 48.3559 11.2466 46.9074 9.79775 45.459C9.07334 44.7347 9.07337 44.7347 8.34896 44.0105C8.34896 44.0105 8.34897 43.2862 7.62456 43.2862V42.562V41.8377C6.90015 41.1135 6.17571 39.665 6.17571 38.2165C5.4513 35.3196 4.7269 32.4226 5.45131 29.5256V28.8014V28.0771V27.3529C5.45131 26.6286 6.17571 25.9044 6.17571 25.9044C6.90012 24.4559 7.62455 23.7317 8.34896 23.0074C8.34896 22.2832 9.07335 22.2832 9.07335 21.559C9.79776 20.8347 9.79774 20.8347 10.5222 20.1105L11.2466 19.3862L11.971 18.662C13.4198 17.2135 15.593 15.765 17.0418 15.0408C17.7663 14.3165 19.2151 14.3165 19.9395 13.5923C20.6639 13.5923 21.3883 13.5923 21.3883 12.868H22.1127H22.8371H23.5615C25.0104 12.868 25.7348 12.868 27.1836 12.868C27.908 12.868 28.6324 12.868 28.6324 13.5923H29.3568C29.3568 13.5923 30.0812 13.5923 30.0812 14.3165C30.8056 15.0408 32.2545 15.765 32.9789 16.4893C32.9789 16.4893 33.7033 16.4893 33.7033 17.2135C33.7033 17.9377 34.4277 17.9377 34.4277 18.662C35.8765 20.1105 36.6009 21.559 37.3253 23.0074C38.0497 24.4559 38.7741 25.9044 39.4985 27.3529C40.9473 30.2499 41.6718 33.1468 42.3962 36.0438C43.1206 38.9408 43.845 41.1135 43.845 43.2862C44.5694 45.459 44.5694 47.6317 44.5694 49.0802C45.2938 51.9771 45.2938 54.1499 45.2938 54.1499L46.7426 64.2893Z" fill="white"/>
<path d="M77.9233 17.6091C74.3012 21.2303 67.7816 21.2303 63.4351 17.6091C59.8131 13.9879 59.8131 7.46969 63.4351 3.12423C67.0571 -0.496978 73.5768 -0.496978 77.9233 3.12423C81.5453 7.46969 81.5453 13.9879 77.9233 17.6091Z" fill="#A3A3A3"/>
<path d="M33.1911 107.072C29.569 110.693 23.0493 110.693 18.7029 107.072C15.0808 103.451 15.0808 96.9326 18.7029 92.5871C22.3249 88.9659 28.8446 88.9659 33.1911 92.5871C36.8131 96.9326 36.8131 103.451 33.1911 107.072Z" fill="#A3A3A3"/>
<path d="M85.6202 106.691C81.9981 103.07 81.9981 96.5515 85.6202 92.206C89.2422 88.5848 95.7619 88.5848 100.108 92.206C103.73 95.8272 103.73 102.345 100.108 106.691C95.7619 111.036 89.2422 111.036 85.6202 106.691Z" fill="#A3A3A3"/>
<path d="M18.7029 17.6091C15.0808 13.9879 15.0808 7.46969 18.7029 3.12423C22.3249 -0.496978 28.8446 -0.496978 33.1911 3.12423C36.8131 6.74545 36.8131 13.2636 33.1911 17.6091C28.8446 21.9545 22.3249 21.9545 18.7029 17.6091Z" fill="#A3A3A3"/>
</svg>
