<svg width="141" height="120" viewBox="0 0 141 120" fill="none" xmlns="http://www.w3.org/2000/svg">
<path d="M118.032 119.567H83.9845C82.5356 119.567 81.0869 118.119 81.0869 116.67V42.0732C81.0869 37.0035 77.4648 33.3823 72.394 33.3823H71.6695C66.5986 33.3823 62.9766 37.0035 62.9766 42.0732V116.67C62.9766 118.119 61.5278 119.567 60.079 119.567H26.7562C25.3073 119.567 23.8586 118.119 23.8586 116.67V103.634H3.57507C2.12625 103.634 0.677368 102.185 0.677368 100.737C0.677368 99.2884 2.12625 97.8399 3.57507 97.8399H23.8586V47.8672C23.8586 39.9005 30.3782 34.1066 37.6223 34.1066C45.5908 34.1066 51.386 40.6247 51.386 47.8672V100.737C51.386 102.185 49.9373 103.634 48.4884 103.634H28.2049V114.497H56.457V42.7975C56.457 34.8308 62.9766 29.0369 70.2207 29.0369H70.9452C78.9137 29.0369 84.7089 35.5551 84.7089 42.7975V114.497H112.961V103.634H92.6775C91.2286 103.634 89.7797 102.185 89.7797 100.737V47.8672C89.7797 39.9005 96.2995 34.1066 103.544 34.1066C111.512 34.1066 117.307 40.6247 117.307 47.8672V97.8399H137.591C139.04 97.8399 140.488 99.2884 140.488 100.737C140.488 102.185 139.04 103.634 137.591 103.634H117.307V116.67C120.205 118.119 119.481 119.567 118.032 119.567ZM97.7483 97.8399H115.134V47.8672C115.134 42.7975 111.512 39.1763 106.441 39.1763C101.37 39.1763 97.7483 42.7975 97.7483 47.8672V97.8399ZM28.9294 97.8399H46.3152V47.8672C46.3152 42.7975 42.6932 39.1763 37.6223 39.1763C32.5514 39.1763 28.9294 42.7975 28.9294 47.8672V97.8399Z" fill="#A1A1A1"/>
<path d="M48.4884 17.4491C48.4884 23.243 43.4175 28.3127 37.6222 28.3127C31.827 28.3127 26.7561 23.243 26.7561 17.4491C26.7561 11.6551 31.827 6.58545 37.6222 6.58545C43.4175 6.58545 48.4884 11.6551 48.4884 17.4491Z" fill="white"/>
<path d="M116.583 17.4491C116.583 23.243 111.512 28.3127 105.717 28.3127C99.9215 28.3127 94.8506 23.243 94.8506 17.4491C94.8506 11.6551 99.9215 6.58545 105.717 6.58545C112.236 6.58545 116.583 11.6551 116.583 17.4491Z" fill="white"/>
<path d="M82.5356 11.6551C82.5356 17.4491 77.4648 22.5188 71.6695 22.5188C65.8742 22.5188 60.8033 17.4491 60.8033 11.6551C60.8033 5.8612 65.8742 0.791504 71.6695 0.791504C78.1892 0.791504 82.5356 5.8612 82.5356 11.6551Z" fill="white"/>
</svg>
