<svg width="116" height="106" viewBox="0 0 116 106" fill="none" xmlns="http://www.w3.org/2000/svg">
<path d="M9.69662 27.9212C12.5943 25.7484 16.2163 22.8515 19.114 20.6787C22.0116 18.506 24.9092 16.3333 28.5313 14.8848C31.4289 14.1605 34.3265 13.4363 37.9486 13.4363C44.4683 13.4363 50.2635 12.7121 56.7832 12.7121C61.8541 12.7121 67.6494 11.9878 72.7202 13.4363C79.2399 14.8848 85.0352 18.506 90.1061 22.1272C93.0037 23.5757 95.1769 25.7484 98.0746 27.1969C99.5234 27.9211 100.972 28.6454 102.421 30.0939C103.87 31.5424 105.319 32.9909 106.767 35.1636C109.665 39.509 113.287 43.8545 114.736 49.6484C116.909 56.8909 114.736 79.3424 90.8305 79.3424C87.2084 79.3424 82.862 78.6181 79.9643 75.7211C79.2399 79.3424 76.3423 82.2393 72.7202 83.6878C69.0982 85.1363 65.4762 85.1363 61.8541 84.4121C57.5076 83.6878 53.1612 82.2393 49.5391 85.1363C44.4683 88.7575 45.1927 91.6545 42.295 97.4484C40.1218 101.794 35.051 103.967 30.7045 105.415C29.2557 106.139 27.0825 106.139 26.3581 105.415C24.9092 103.967 26.358 101.794 27.0825 100.345C29.2557 97.4484 30.7045 93.8272 28.5313 90.9302C27.8069 90.206 26.358 89.4818 25.6336 89.4818C22.0116 88.7575 18.3895 88.7575 14.7675 87.309C11.1454 85.8605 8.24782 82.2393 8.24782 77.8939C8.24782 76.4454 8.24782 74.9969 8.24782 73.5484C7.52341 70.6515 4.62575 68.4787 2.45252 65.5817C0.279295 62.6848 0.2793 59.7878 0.2793 56.1666C-1.16952 46.7514 3.17693 34.4393 9.69662 27.9212Z" fill="#A3A3A3"/>
<path d="M40.1218 36.6121C37.9486 36.6121 36.4998 35.1636 36.4998 32.9909V32.2667H35.7754H35.051C34.3265 32.9909 33.6021 32.9909 32.8777 32.9909C32.1533 32.9909 30.7045 32.9909 29.9801 32.2667L27.8069 30.094C27.0825 29.3697 27.0825 28.6455 27.0825 27.9212C27.0825 27.197 27.8069 26.4727 27.8069 25.7485L28.5313 25.0243V24.3H27.8069C25.6336 24.3 24.1848 22.8515 24.1848 20.6788V17.7818C24.1848 15.6091 25.6336 14.1606 27.8069 14.1606H28.5313C28.5313 14.1606 28.5313 13.4364 29.2557 13.4364L28.5313 12.7121C27.8069 11.9879 27.8069 11.2637 27.8069 10.5394C27.8069 9.81517 28.5313 9.09093 28.5313 8.36669L30.7045 6.19397C31.4289 5.46973 32.1533 5.46971 32.8777 5.46971C33.6021 5.46971 34.3265 6.19397 35.051 6.19397C35.051 6.19397 35.7754 6.19395 36.4998 5.46971V4.74548C36.4998 2.57275 37.9486 1.12427 40.1218 1.12427H43.0195C45.1927 1.12427 46.6415 2.57275 46.6415 4.74548V5.46971C47.3659 5.46971 47.3659 5.46973 48.0903 6.19397C48.8148 5.46973 49.5392 5.46971 50.2636 5.46971C50.988 5.46971 51.7124 6.19397 52.4368 6.19397L54.61 8.36669C55.3344 9.09093 55.3344 9.81517 55.3344 10.5394C55.3344 11.2637 54.61 11.9879 54.61 12.7121L53.8856 13.4364C53.8856 13.4364 53.8856 14.1606 54.61 14.1606H55.3344C57.5077 14.1606 58.9565 15.6091 58.9565 17.7818V20.6788C58.9565 22.8515 57.5077 24.3 55.3344 24.3H54.61V25.0243L55.3344 25.7485C56.0589 26.4727 56.0588 27.197 56.0588 27.9212C56.0588 28.6455 55.3344 29.3697 55.3344 30.094L52.4368 32.2667C51.7124 32.9909 50.988 32.9909 50.2636 32.9909C49.5392 32.9909 48.8148 32.2667 48.0903 32.2667L47.3659 31.5425H46.6415V32.2667C46.6415 34.4394 45.1927 35.8879 43.0195 35.8879H40.1218V36.6121ZM40.8463 12.7121C37.2242 12.7121 35.051 15.6091 35.051 18.5061C35.051 22.1273 37.9486 24.3 40.8463 24.3C44.4683 24.3 46.6415 21.403 46.6415 18.5061C47.3659 15.6091 44.4683 12.7121 40.8463 12.7121Z" fill="#666666"/>
<path d="M42.2951 2.57265C43.7439 2.57265 45.1927 4.02112 45.1927 5.46961V6.9181C45.9171 6.9181 46.6415 7.64233 47.3659 7.64233L48.0904 6.9181C48.8148 6.19385 49.5391 6.19386 49.5391 6.19386C50.2636 6.19386 50.988 6.19385 50.988 6.9181L53.1612 9.09082C53.8856 9.81506 53.8856 11.9878 53.1612 12.712L52.4368 13.4363C52.4368 14.1605 53.1612 14.8848 53.1612 15.609H54.61C56.0588 15.609 57.5077 17.0575 57.5077 18.506V21.4029C57.5077 22.8514 56.0588 24.2999 54.61 24.2999H53.1612C53.1612 25.0242 52.4368 25.7484 52.4368 26.4726L53.8856 27.9211C54.61 28.6454 54.61 30.8181 53.8856 31.5424L51.7124 33.7151C51.7124 32.2666 50.988 32.2666 50.2636 32.2666C49.5392 32.2666 48.8148 32.2666 48.8148 31.5424L47.3659 30.0939C46.6415 30.0939 45.9171 30.8181 45.1927 30.8181V32.2666C45.1927 33.7151 43.7439 35.1636 42.2951 35.1636H39.3974C37.9486 35.1636 36.4998 33.7151 36.4998 32.2666V30.8181C35.7754 30.8181 35.051 30.0939 34.3266 30.0939L32.8777 31.5424C33.6021 32.2666 32.8777 32.2666 32.1533 32.2666C31.4289 32.2666 30.7045 32.2666 30.7045 31.5424L28.5313 29.3696C27.8069 28.6454 27.8069 26.4726 28.5313 25.7484L29.9801 24.2999C29.9801 23.5757 29.2557 22.8514 29.2557 22.1272H27.8069C26.358 22.1272 24.9092 20.6787 24.9092 19.2302V17.7817C24.9092 16.3332 26.358 14.8848 27.8069 14.8848H29.2557C29.2557 14.1605 29.9801 13.4363 29.9801 12.712L29.2557 11.9878C28.5313 11.2636 28.5313 9.09083 29.2557 8.36659L31.4289 6.19386C32.1533 5.46962 32.8777 5.46961 32.8777 5.46961C33.6021 5.46961 34.3266 5.46962 34.3266 6.19386L35.051 6.9181C35.7754 6.19385 36.4998 6.19386 37.2242 6.19386V4.74537C37.2242 3.29689 38.673 1.84839 40.1218 1.84839H42.2951V2.57265ZM40.8463 25.7484C44.4683 25.7484 48.0904 22.8514 48.0904 18.506C48.0904 14.8848 45.1927 11.2635 40.8463 11.2635C37.2242 11.2635 33.6022 14.1605 33.6022 18.506C34.3266 22.8514 37.2242 25.7484 40.8463 25.7484ZM42.2951 0.399902H39.3974C37.2242 0.399902 35.051 2.57265 35.051 4.74537C34.3266 4.02113 32.8777 3.29688 32.1533 3.29688C30.7045 3.29688 29.9801 4.02113 29.2557 4.74537L27.0825 6.9181C26.3581 7.64234 25.6336 9.09083 25.6336 9.81508C25.6336 11.2636 26.3581 11.9878 27.0825 12.712C24.9092 12.712 22.736 14.8848 22.736 17.0575V19.9545C22.736 22.1272 24.9092 24.2999 27.0825 24.2999C26.3581 25.0242 25.6336 26.4726 25.6336 27.1969C25.6336 28.6454 26.3581 29.3696 27.0825 30.0939L29.2557 32.2666C29.9801 32.9908 31.4289 33.7151 32.1533 33.7151C33.6022 33.7151 34.3266 32.9908 35.051 32.2666C35.051 34.4393 37.2242 36.612 39.3974 36.612H42.2951C44.4683 36.612 46.6415 34.4393 46.6415 32.2666C47.3659 32.9908 48.8147 33.7151 49.5391 33.7151C50.988 33.7151 51.7124 32.9908 52.4368 32.2666L54.61 30.0939C55.3344 29.3696 56.0588 27.9211 56.0588 27.1969C56.0588 25.7484 55.3344 25.0242 54.61 24.2999C56.7832 24.2999 58.9565 22.1272 58.9565 19.9545V17.7817C58.9565 15.609 56.7832 13.4363 54.61 13.4363C55.3344 12.712 56.0588 11.2636 56.0588 10.5393C56.0588 9.09082 55.3344 8.36657 54.61 7.64233L52.4368 5.46961C51.7124 4.74536 50.2636 4.02111 49.5391 4.02111C48.0903 4.02111 47.3659 4.74536 46.6415 5.46961C46.6415 2.57264 45.1927 0.399902 42.2951 0.399902ZM40.8463 23.5757C37.9486 23.5757 35.7754 21.4029 35.7754 18.506C35.7754 15.609 37.9486 13.4363 40.8463 13.4363C43.7439 13.4363 45.9171 15.609 45.9171 18.506C46.6415 21.4029 43.7439 23.5757 40.8463 23.5757Z" fill="#D1D3D4"/>
<path d="M79.24 49.6484H77.7912C77.7912 48.9242 77.0668 48.1999 77.0668 46.7514L78.5156 45.303C79.9644 43.8545 79.9644 42.406 78.5156 40.9575L76.3424 38.7848C74.8935 37.3363 73.4447 37.3363 71.9959 38.7848L69.0983 39.509C68.3738 38.7848 67.6495 38.7848 66.2006 38.0605V36.612C66.2006 35.1636 64.7518 33.7151 63.303 33.7151H59.6809C58.2321 33.7151 56.7833 35.1636 56.7833 36.612V38.0605C56.0589 38.0605 54.6101 38.7848 53.8857 39.509L53.1612 38.7848C51.7124 37.3363 50.2636 37.3363 48.8148 38.7848L46.6416 40.9575C45.1928 42.406 45.1928 43.8545 46.6416 45.303L48.0904 46.7514C47.366 47.4757 47.366 48.1999 47.366 49.6484H45.9172C44.4683 49.6484 43.0195 51.0969 43.0195 52.5454V56.1666C43.0195 57.6151 44.4683 59.0636 45.9172 59.0636H48.0904C48.0904 59.7878 48.8148 60.5121 48.8148 61.2363L47.366 62.6848C45.9172 64.1333 45.9172 65.5817 47.366 67.0302L49.5392 69.2029C50.988 70.6514 52.4369 70.6514 53.8857 69.2029L55.3345 67.7545C56.0589 68.4787 56.7833 68.4787 57.5077 68.4787V70.6514C57.5077 72.0999 58.9565 73.5484 60.4053 73.5484H64.0274C65.4762 73.5484 66.925 72.0999 66.925 70.6514V68.4787C67.6494 68.4787 68.3738 67.7545 69.0983 67.7545L70.5471 69.2029C71.9959 70.6514 73.4447 70.6514 74.8935 69.2029L77.0668 67.0302C78.5156 65.5817 78.5156 64.1333 77.0668 62.6848L75.618 61.2363C76.3424 60.5121 76.3424 59.7878 76.3424 59.0636H78.5156C79.9644 59.0636 81.4132 57.6151 81.4132 56.1666V52.5454C82.1376 51.0969 80.6888 49.6484 79.24 49.6484ZM61.8542 62.6848C56.7833 62.6848 53.1612 59.0636 53.1612 53.9939C53.1612 48.9242 56.7833 45.303 61.8542 45.303C66.925 45.303 70.5471 48.9242 70.5471 53.9939C70.5471 59.0636 66.2006 62.6848 61.8542 62.6848Z" fill="white"/>
</svg>
