<svg width="19" height="18" viewBox="0 0 19 18" fill="none" xmlns="http://www.w3.org/2000/svg">
<g id="Group 4">
<path id="Vector" d="M13.4628 0.102814H5.30205C2.64604 0.102814 0.485291 2.26357 0.485291 4.91957V13.0805C0.485291 15.7364 2.64604 17.8971 5.30205 17.8971H13.463C16.1188 17.8971 18.2796 15.7364 18.2796 13.0805V4.91957C18.2796 2.26357 16.1188 0.102814 13.4628 0.102814ZM17.2364 13.0805C17.2364 15.1612 15.5436 16.8539 13.4628 16.8539H5.30205C3.22126 16.8539 1.52847 15.1612 1.52847 13.0805V4.91957C1.52847 2.83878 3.22126 1.14599 5.30205 1.14599H13.463C15.5436 1.14599 17.2364 2.83878 17.2364 4.91957V13.0805Z" fill="white"/>
<path id="Vector_2" d="M9.38246 4.13446C6.69958 4.13446 4.51697 6.31707 4.51697 8.99996C4.51697 11.6828 6.69958 13.8655 9.38246 13.8655C12.0653 13.8655 14.248 11.6828 14.248 8.99996C14.248 6.31707 12.0653 4.13446 9.38246 4.13446ZM9.38246 12.8223C7.27493 12.8223 5.56015 11.1076 5.56015 8.99996C5.56015 6.89242 7.27493 5.17764 9.38246 5.17764C11.4901 5.17764 13.2048 6.89242 13.2048 8.99996C13.2048 11.1076 11.4901 12.8223 9.38246 12.8223Z" fill="white"/>
<path id="Vector_3" d="M14.3643 2.40649C13.5714 2.40649 12.9266 3.05149 12.9266 3.84419C12.9266 4.63703 13.5714 5.28202 14.3643 5.28202C15.1571 5.28202 15.8021 4.63703 15.8021 3.84419C15.8021 3.05135 15.1571 2.40649 14.3643 2.40649ZM14.3643 4.23871C14.1468 4.23871 13.9698 4.06168 13.9698 3.84419C13.9698 3.62657 14.1468 3.44967 14.3643 3.44967C14.5819 3.44967 14.7589 3.62657 14.7589 3.84419C14.7589 4.06168 14.5819 4.23871 14.3643 4.23871Z" fill="white"/>
</g>
</svg>
