<svg width="21" height="18" viewBox="0 0 21 18" fill="none" xmlns="http://www.w3.org/2000/svg">
<g id="Group">
<g id="Group_2">
<path id="Vector" d="M20.5715 2.84065C19.8328 3.16469 19.0456 3.37948 18.2249 3.48377C19.0692 2.9797 19.7136 2.18759 20.0165 1.23284C19.2294 1.70215 18.3603 2.03364 17.4341 2.21863C16.6867 1.4228 15.6214 0.929901 14.4593 0.929901C12.2047 0.929901 10.3895 2.75995 10.3895 5.00343C10.3895 5.32623 10.4168 5.63662 10.4839 5.93211C7.09817 5.76698 4.10231 4.14428 2.08975 1.67235C1.73839 2.28195 1.5323 2.9797 1.5323 3.73084C1.5323 5.14124 2.2586 6.39148 3.34124 7.11531C2.68694 7.10289 2.04506 6.91293 1.50126 6.61372C1.50126 6.62614 1.50126 6.64227 1.50126 6.65842C1.50126 8.63745 2.9129 10.2813 4.76405 10.6599C4.43256 10.7506 4.07127 10.794 3.69632 10.794C3.43559 10.794 3.17238 10.7791 2.92532 10.7245C3.45297 12.3373 4.95028 13.5229 6.73067 13.5614C5.3451 14.6453 3.58582 15.2984 1.68128 15.2984C1.34731 15.2984 1.02699 15.2835 0.706665 15.2425C2.51064 16.4058 4.64859 17.0701 6.95415 17.0701C14.4481 17.0701 18.5453 10.8623 18.5453 5.48143C18.5453 5.3014 18.5391 5.12758 18.5304 4.95501C19.3386 4.38141 20.0177 3.66504 20.5715 2.84065Z" fill="white"/>
</g>
</g>
</svg>
