<svg width="43" height="68" viewBox="0 0 43 68" fill="none" xmlns="http://www.w3.org/2000/svg">
<g clip-path="url(#clip0_28_16)">
<path d="M21.9083 41.8449C10.5333 41.8449 0.908325 33.0291 0.908325 21.5685C0.908325 10.108 10.5333 0.410645 21.9083 0.410645C33.2833 0.410645 42.9083 10.108 42.9083 21.5685C42.9083 33.0291 33.2833 41.8449 21.9083 41.8449ZM21.9083 4.81854C13.1583 4.81854 5.28333 11.8712 5.28333 21.5685C5.28333 31.2659 12.2833 38.3185 21.9083 38.3185C30.6583 38.3185 38.5333 31.2659 38.5333 21.5685C38.5333 11.8712 31.5333 4.81854 21.9083 4.81854Z" fill="#D1D3D4"/>
<path d="M42.9083 67.4107H0.908325V59.4765C0.908325 48.016 10.5333 38.3186 21.9083 38.3186C33.2833 38.3186 42.9083 48.016 42.9083 59.4765V67.4107ZM5.28333 63.0028H38.5333V59.4765C38.5333 49.7791 30.6583 42.7265 21.9083 42.7265C12.2833 42.7265 5.28333 50.6607 5.28333 59.4765V63.0028Z" fill="#D1D3D4"/>
</g>
<defs>
<clipPath id="clip0_28_16">
<rect width="42" height="67" fill="white" transform="translate(0.908325 0.410645)"/>
</clipPath>
</defs>
</svg>
