<svg width="37" height="58" viewBox="0 0 37 58" fill="none" xmlns="http://www.w3.org/2000/svg">
<g clip-path="url(#clip0_18_2425)">
<path d="M0 51.1398V6.86022C0 3.11828 3.24561 0 7.14035 0H30.5088C34.4035 0 37.6491 3.11828 37.6491 6.86022V51.7634C37.6491 55.5054 34.4035 58.6236 30.5088 58.6236H7.14035C3.24561 58 0 54.8817 0 51.1398Z" fill="#668E19"/>
<path d="M36.8072 52.0246L36.8072 6.59448L-3.19281 6.59448L-3.19281 52.0246L36.8072 52.0246Z" fill="#8DC63F"/>
<path d="M22.0701 53.6345H14.9298C14.2807 53.6345 13.6315 53.0109 13.6315 52.3872C13.6315 51.7635 14.2807 51.1399 14.9298 51.1399H22.0701C22.7193 51.1399 23.3684 51.7635 23.3684 52.3872C23.3684 53.0109 22.7193 53.6345 22.0701 53.6345Z" fill="white"/>
<path d="M15.5789 34.9248C14.9298 34.9248 14.9298 34.9248 14.2807 34.3011L9.08767 29.3119C8.43855 28.6882 8.43855 28.0645 9.08767 27.4409C9.7368 26.8172 10.3859 26.8172 11.035 27.4409L15.5789 31.8065L27.9122 15.5914C28.5614 14.9678 29.2105 14.9678 29.8596 14.9678C30.5087 15.5914 30.5087 16.2151 30.5087 16.8387L17.5263 34.3011C16.8771 34.9248 16.228 34.9248 15.5789 34.9248Z" fill="white"/>
</g>
<defs>
<clipPath id="clip0_18_2425">
<rect width="37" height="58" fill="white"/>
</clipPath>
</defs>
</svg>
