<svg width="240" height="240" viewBox="0 0 240 240" fill="none" xmlns="http://www.w3.org/2000/svg">
<path d="M239.276 0.679077H0.220581V239.679H239.276V0.679077Z" fill="white"/>
<path d="M192.693 158.202C191.245 158.202 190.52 158.202 189.796 157.478C187.622 156.753 186.898 153.856 186.898 151.684C185.449 142.268 185.449 131.405 181.827 122.714C178.205 115.472 172.41 109.678 168.063 103.159C166.615 100.987 165.166 99.5382 162.993 98.8139C161.544 98.0897 159.371 96.6412 157.197 96.6412C156.473 96.6412 156.473 95.917 155.749 95.917C152.851 94.4685 149.229 93.7443 145.607 94.4685C141.985 94.4685 139.087 95.1927 135.465 95.917C133.292 95.917 132.567 96.6412 130.394 96.6412C128.221 96.6412 125.323 97.3654 123.15 97.3654C122.426 97.3654 121.701 97.3654 120.977 97.3654C120.977 97.3654 120.977 97.3654 120.252 97.3654C118.079 97.3654 115.182 96.6412 113.008 96.6412H112.284H111.559C110.835 96.6412 110.835 96.6412 110.111 96.6412C108.662 96.6412 107.937 95.917 106.489 95.1927C105.764 95.1927 105.764 94.4685 105.04 94.4685C101.418 95.1927 97.7957 95.1927 95.6225 95.917H94.8981C94.8981 95.917 97.7958 93.7442 105.04 93.7442V93.02C104.315 92.2958 102.142 90.8473 101.418 90.123L100.693 89.3988C99.2445 87.9503 97.0713 87.2261 95.6225 86.5018C94.8981 85.7776 93.4493 85.0533 92.7249 83.6049C90.5516 81.4321 88.3784 77.8109 86.2052 75.6382C81.8587 71.2927 76.0634 69.8443 70.2682 69.12C70.2682 69.12 69.5438 69.12 68.8194 69.12L70.2682 70.5685L71.717 71.2927L65.9217 69.12C65.1973 69.12 63.0241 68.3958 63.0241 68.3958C61.5753 68.3958 60.1264 69.12 59.402 69.8442L64.4729 72.017L60.8508 71.2927C59.402 70.5685 57.9532 70.5685 56.5044 70.5685C55.0556 70.5685 52.8824 70.5685 51.4335 70.5685C50.7091 70.5685 46.3627 72.017 45.6382 73.4655C47.8115 74.1897 51.4335 76.3624 52.1579 81.4321C49.2603 82.1564 47.0871 83.6049 46.3626 85.7776C46.3626 86.5018 46.3626 86.5018 46.3626 87.2261C44.9138 88.6746 43.465 90.123 42.0162 91.5715C41.2918 92.2958 40.5674 93.02 39.843 93.7442C39.1186 95.917 39.843 98.0897 41.2918 99.5382L42.0162 100.262C42.0162 100.987 42.7406 101.711 42.7406 102.435C43.465 103.159 45.6382 103.884 46.3626 103.159C47.0871 103.159 47.8115 102.435 48.5359 101.711C49.2603 101.711 50.7091 101.711 51.4335 101.711C51.4335 102.435 51.4336 103.159 50.7091 103.159C50.7091 103.884 49.9847 104.608 49.9847 105.332C49.2603 107.505 49.2603 109.678 49.2603 111.85C49.2603 113.299 49.2603 114.023 49.9847 115.472C49.9847 116.196 50.7091 117.644 50.7091 118.368C52.158 121.265 53.6068 123.438 55.78 125.611C55.78 126.335 56.5044 126.335 56.5044 127.059L57.2288 127.784C57.9532 128.508 58.6776 129.956 60.1264 130.681L60.8508 131.405C62.2997 134.302 65.1973 140.82 65.1973 143.717C66.6462 142.993 67.3705 141.544 68.0949 140.82V141.544C68.0949 142.993 68.8194 144.441 68.8194 145.89C69.5438 150.959 71.717 155.305 71.717 161.099C71.717 162.547 71.717 166.168 70.2682 167.617C69.5438 168.341 68.0949 168.341 66.6461 169.065C65.9217 169.79 63.0241 172.687 65.1973 174.135C65.1973 174.135 65.1973 174.859 65.9217 174.859H74.6146C75.339 174.859 76.0635 174.135 76.7879 173.411C78.9611 171.238 78.9611 169.065 79.6855 166.168C79.6855 163.272 79.6855 159.65 79.6855 156.753C79.6855 152.408 80.4099 148.062 81.8587 143.717C80.4099 142.268 78.9611 140.82 76.0635 139.372C76.0635 139.372 78.9611 139.372 82.5831 142.993L83.3076 143.717C83.3076 144.441 84.032 144.441 84.032 145.165L84.7564 145.89C86.2052 148.062 86.9296 150.235 87.654 152.408C89.8272 157.478 89.8272 164.72 85.4808 169.065C83.3075 169.065 80.4099 170.514 79.6855 172.687C79.6855 172.687 79.6855 172.687 79.6855 173.411V174.135H93.4493C95.6225 171.962 97.0713 168.341 97.7958 165.444C98.5202 162.547 98.5202 158.926 98.5202 156.029C97.7957 153.132 97.0713 150.235 96.3469 147.338C95.6225 145.165 95.6225 143.717 95.6225 141.544C95.6225 141.544 94.1737 135.75 94.8981 132.129C94.8981 135.026 96.3469 139.372 97.7958 141.544C102.867 141.544 107.937 141.544 113.733 140.82C118.079 139.372 122.426 137.923 126.048 135.75C128.221 135.026 129.67 133.578 131.843 132.853C132.567 132.129 134.016 132.129 134.741 131.405C135.465 131.405 135.465 130.681 136.189 130.681H136.914C137.638 130.681 138.363 129.956 139.087 129.956C137.638 127.784 134.741 123.438 136.189 121.265C136.914 124.887 140.536 128.508 141.26 129.232C141.985 130.681 143.434 132.129 144.158 134.302C145.607 136.475 146.331 137.923 147.056 140.096C147.056 141.544 147.78 142.268 147.78 143.717C147.78 144.441 147.78 145.165 147.78 145.165V145.89V146.614C147.78 148.062 147.78 149.511 147.78 150.959C147.78 152.408 147.78 153.132 147.056 154.581C147.056 156.029 146.331 157.478 146.331 158.926C146.331 160.375 145.607 161.823 144.882 162.547C144.158 163.996 143.434 166.168 142.709 167.617L141.985 168.341C141.985 168.341 141.985 168.341 141.26 169.065H140.536C139.087 169.065 137.638 171.238 138.363 173.411C138.363 174.135 138.363 174.135 138.363 174.859H149.229C151.402 174.135 152.851 171.962 152.851 169.79C153.575 166.893 153.575 164.72 153.575 161.823V161.099C153.575 160.375 153.575 160.375 153.575 159.65V158.926C153.575 158.926 153.575 158.926 153.575 158.202C153.575 158.202 154.3 158.202 154.3 157.478C155.024 156.753 155.024 156.029 155.024 155.305C155.024 153.856 155.024 153.132 154.3 151.684V150.959C154.3 150.235 154.3 149.511 154.3 149.511C154.3 148.062 154.3 146.614 154.3 145.165C154.3 140.82 153.575 135.75 157.197 132.129C160.819 127.784 164.441 122.714 165.166 116.92C165.166 115.472 165.89 114.747 165.89 113.299C165.89 114.747 168.063 116.92 168.788 117.644C170.237 119.817 171.685 122.714 173.134 124.887C176.756 129.956 178.205 136.475 178.205 142.268C178.93 146.614 178.93 150.959 180.378 156.029C181.103 158.202 182.552 161.099 184.725 162.547C186.174 163.272 186.898 163.996 188.347 163.996C193.418 161.099 194.867 159.65 192.693 158.202ZM155.749 156.753C155.749 156.029 156.473 156.029 155.749 156.753V156.753Z" fill="#A2A2A2"/>
<path d="M176.756 146.614L176.032 145.89C175.308 145.165 175.308 144.441 175.308 144.441C175.308 144.441 175.308 143.717 174.583 143.717C174.583 142.993 173.859 142.268 173.859 141.544C173.134 138.647 172.41 135.75 172.41 132.853C171.685 129.956 170.961 126.335 169.512 123.438C168.788 121.99 168.788 121.265 168.063 119.817C167.339 121.265 166.615 123.438 166.615 124.162C165.89 126.335 164.441 127.784 162.993 129.232C160.095 132.129 159.37 132.853 158.646 136.474C158.646 137.199 158.646 137.199 158.646 137.923C159.37 138.647 160.819 139.371 161.544 140.096C162.268 140.82 162.993 140.82 164.441 141.544C164.441 141.544 164.441 141.544 165.166 141.544C165.89 142.268 166.615 143.717 167.339 144.441C168.063 145.165 168.063 145.89 168.788 146.614C168.788 146.614 168.788 147.338 169.512 147.338C170.237 148.062 170.237 148.787 170.961 149.511V150.235C170.961 153.856 170.237 157.478 168.788 161.099C168.788 161.823 168.788 161.823 168.788 162.547V163.271V163.996C168.788 163.996 168.788 163.996 168.063 164.72C168.063 164.72 168.063 164.72 167.339 164.72C167.339 164.72 166.615 164.72 166.615 165.444H165.89C164.441 166.168 162.268 168.341 162.993 170.514C163.717 171.962 165.166 173.411 167.339 173.411C173.134 173.411 174.583 169.065 176.032 164.72C177.481 161.099 178.205 156.753 178.205 152.408C178.205 150.235 178.205 148.062 176.756 146.614Z" fill="#A2A2A2"/>
<path d="M95.6225 93.7441C94.1737 93.7441 92.7248 93.7441 92.0004 93.7441C89.1028 94.4684 86.9296 95.1926 84.0319 95.9169C80.4099 97.3654 76.7878 99.5381 73.8902 102.435C71.717 104.608 69.5437 106.056 66.6461 108.229C64.4729 109.677 62.2996 111.126 60.1264 112.574C59.402 113.299 57.9532 114.023 57.2288 115.471C56.5044 116.196 56.5044 116.92 55.78 118.368C55.0556 119.817 54.3311 120.541 53.6067 121.99C53.6067 125.611 55.0556 131.405 59.402 136.474C58.6776 135.75 60.8509 131.405 61.5753 130.681C61.5753 129.956 62.2997 129.956 62.2997 129.232L63.0241 129.956C64.4729 132.853 67.3705 139.371 67.3705 142.268C68.8193 141.544 69.5437 140.096 70.2682 139.371V140.096C73.1658 137.923 76.0635 135.026 79.6855 131.405C82.5831 127.784 84.0319 122.714 86.2051 117.644C87.654 113.299 89.1028 108.953 90.5516 105.332C91.2761 103.159 92.0004 100.987 93.4492 99.5381C94.8981 98.0896 96.3469 96.6411 98.5201 95.1926C97.0713 94.4684 95.6225 93.7441 95.6225 93.7441Z" fill="#666666"/>
<path d="M105.764 92.2957C100.693 93.0199 96.3469 93.7442 92.0005 95.9169C84.7564 99.5381 81.8587 108.229 74.6146 112.574C68.095 116.196 60.1265 117.644 54.3312 122.714C53.6068 123.438 52.1579 124.887 52.8824 126.335C51.4335 122.714 50.7091 117.644 52.158 114.023C53.6068 110.402 56.5044 108.953 59.4021 107.505C67.3706 103.159 75.339 93.7442 82.5831 88.6745C83.3075 87.9502 94.1737 82.8805 94.1737 83.6048C96.347 85.7775 99.969 87.226 102.142 89.3987C102.867 90.123 105.04 91.5715 105.764 92.2957C105.764 91.5715 105.04 91.5715 105.764 92.2957Z" fill="#7D7D7D"/>
<path d="M93.4492 82.8806C90.5516 86.5018 86.2051 87.9503 82.5831 90.123C78.2366 92.2957 74.6146 96.6412 70.9926 100.262C67.3705 103.884 62.2997 106.056 57.9532 108.953C55.0556 111.126 50.7091 114.023 48.5359 116.92C46.3626 110.402 50.7091 103.884 55.0556 99.5382C60.1264 95.1927 66.6461 91.5715 71.717 86.5018L72.4414 85.7776C82.5831 74.1897 63.7485 69.12 63.7485 69.12L58.6776 66.9473C59.402 66.223 60.8508 65.4988 62.2997 65.4988C62.2997 65.4988 64.4729 66.223 65.1973 66.223C65.9217 66.223 70.9926 68.3957 70.9926 68.3957L68.0949 66.223C74.6146 66.223 80.4099 68.3957 85.4807 72.7412C88.3784 74.9139 89.8272 77.8109 92.0004 80.7079C93.4493 82.1563 93.4492 82.8806 93.4492 82.8806Z" fill="#A3A3A3"/>
<path d="M197.04 161.823C197.764 161.823 198.489 161.823 199.937 161.823C198.489 161.099 197.764 160.375 197.764 160.375C197.764 160.375 197.764 159.65 199.213 160.375C199.213 160.375 199.213 159.65 198.489 159.65C198.489 159.65 197.764 159.65 197.764 158.926C197.04 158.926 196.315 158.202 195.591 158.202C193.418 158.202 191.245 158.202 189.071 158.926C189.071 158.926 189.071 158.926 188.347 158.926C187.623 159.65 189.071 160.375 189.071 161.099C189.796 161.823 190.52 162.547 191.245 162.547C193.418 163.272 195.591 163.272 197.764 162.547C198.489 161.823 197.764 161.823 197.04 161.823Z" fill="#A3A3A3"/>
<path d="M52.1579 79.2592C52.1579 79.2592 57.2288 77.8108 60.8508 80.7077C62.2997 78.535 63.7485 77.8108 65.1973 79.2592C66.6462 80.7077 63.0241 82.1562 63.0241 82.1562C63.0241 82.1562 67.3705 83.6047 67.3705 87.2259C67.3705 92.2956 62.2997 94.4684 57.9532 96.6411C55.78 98.0896 53.6068 98.8138 52.1579 100.987C49.9847 103.159 49.2603 106.056 49.2603 108.953C50.7091 106.056 55.0556 103.159 57.2288 100.987C62.2997 96.6411 68.095 93.0199 72.4414 87.9502L73.1658 87.2259C83.3076 75.6381 64.4729 70.5684 64.4729 70.5684L60.8508 69.8441C59.402 69.1199 57.9532 69.1199 56.5044 69.1199C55.0556 69.1199 52.8824 69.1199 51.4335 69.1199C50.7091 69.1199 46.3627 70.5683 45.6382 72.0168C48.5359 72.0168 52.1579 74.1896 52.1579 79.2592Z" fill="#A3A3A3"/>
<path d="M53.6067 86.5017L57.2288 85.0532H58.6776L57.2288 86.5017H53.6067Z" fill="#666666"/>
<path d="M189.291 173.411H50.9292V174.859H189.291V173.411Z" fill="#A2A2A2"/>
</svg>
