<svg width="175" height="81" viewBox="0 0 175 81" fill="none" xmlns="http://www.w3.org/2000/svg">
<path d="M164.078 34.3449H163.354C162.629 37.2419 161.905 39.4146 161.181 41.5874C159.732 44.4843 156.834 47.3813 154.661 50.2783C153.937 51.0025 153.937 51.0025 153.212 51.7267C153.212 53.8995 153.212 56.0722 153.212 58.2449C153.212 59.6934 153.937 61.8661 153.212 63.3146C153.212 64.7631 152.488 66.2116 151.039 67.6601C150.314 68.3843 148.866 69.1086 148.141 70.5571C148.141 70.5571 148.141 70.5571 148.141 71.2813C148.141 71.2813 148.141 71.2813 148.141 72.0055C148.141 72.0055 148.141 72.0055 148.141 72.7298C148.141 72.7298 148.141 72.7298 148.141 73.454C148.866 75.6267 147.417 77.0752 145.244 77.0752C142.346 77.7995 139.448 77.7995 136.551 77.7995C134.377 77.7995 132.204 78.5237 130.031 78.5237C130.031 78.5237 130.031 78.5237 129.307 78.5237C127.858 78.5237 126.409 78.5237 125.685 77.7995C122.062 75.6267 125.685 70.557 128.582 69.1086C129.307 68.3843 130.031 67.6601 131.48 67.6601C132.204 66.9358 132.929 66.9358 132.929 66.2116C133.653 64.7631 134.377 64.0389 134.377 61.8661C134.377 60.4177 134.377 58.2449 134.377 56.7965C134.377 55.348 134.377 54.6237 134.377 53.1752C130.031 51.7268 127.133 48.1055 127.133 47.3813L132.204 53.8995L132.929 57.5207C127.133 59.6934 121.338 61.1419 116.267 61.8661C105.401 64.0389 92.3617 64.7631 80.7712 62.5904C80.0468 62.5904 74.2515 61.1419 72.0783 60.4177C72.0783 60.4177 72.0782 60.4177 71.3538 60.4177C69.1806 59.6934 70.6294 58.2449 69.905 56.0722C68.4562 61.1419 70.6295 70.5571 72.0783 75.6268C72.0783 76.351 71.3538 77.0752 71.3538 77.0752C70.6294 77.7995 69.1806 78.5237 68.4562 78.5237C64.8342 79.248 61.2121 79.248 57.5901 79.248C55.4169 79.248 51.0704 79.9722 50.346 77.0752C49.6216 75.6267 50.3459 74.1783 51.0703 72.7298C51.7947 71.2813 53.2436 70.5571 53.968 69.8328C53.968 69.8328 54.6924 69.8328 54.6924 69.1086C54.6924 69.1086 54.6924 69.1086 54.6924 68.3843C54.6924 67.6601 54.6924 67.6601 54.6924 66.9358C54.6924 65.4874 54.6925 64.0389 53.968 61.8661C53.2436 59.6934 52.5192 58.2449 52.5192 56.0722C51.7948 53.8995 51.7947 51.7268 51.0703 49.554C51.0703 49.554 51.0703 49.554 51.0703 48.8298C49.6215 47.3813 47.4483 45.9328 45.9995 44.4843C48.1727 41.5874 47.4483 36.5177 47.4483 36.5177C47.4483 36.5177 47.4484 37.9661 46.7239 39.4146C46.7239 39.4146 46.7239 39.4146 46.7239 40.1389C45.9995 42.3116 44.5507 43.7601 40.9286 45.9328C40.2042 46.6571 39.4799 46.6571 38.0311 46.6571C35.1334 47.3813 32.9601 46.6571 30.0625 46.6571C30.0625 49.554 27.1649 51.7268 24.9917 53.1752C22.8184 53.8995 20.6451 54.6237 18.4719 54.6237C14.8499 54.6237 11.9523 51.7268 10.5035 49.554C9.77906 48.1055 9.05461 47.3813 9.77902 45.9328C9.05461 45.9328 8.33024 45.2086 6.88142 44.4843C6.88142 43.7601 6.88142 43.7601 6.88142 43.0358C6.88142 40.8631 7.60581 39.4146 8.33022 37.2419C8.33022 37.2419 8.33027 37.2419 9.05467 37.2419C9.05467 37.2419 9.77902 39.4146 9.77902 40.1389C10.5034 40.8631 10.5034 42.3116 11.9523 43.0358C13.4011 44.4843 15.5743 44.4843 17.7476 44.4843V43.7601C19.1964 37.9661 25.7161 34.3449 28.6137 28.551C29.3381 27.8267 29.3381 26.3783 30.0625 25.654C31.5113 25.654 32.9601 24.9298 35.1334 24.2055H34.409C32.2358 24.2055 30.0625 24.2055 30.0625 24.2055C29.3381 24.2055 27.8893 24.2055 27.1649 24.2055C24.9917 24.2055 22.094 22.7571 19.9208 21.3086C19.9208 20.5843 20.6452 19.8601 21.3696 19.8601C22.8184 19.8601 24.2672 19.8601 25.716 19.1358C27.1648 19.1358 27.8892 18.4116 29.3381 17.6874C31.5113 16.9631 33.6845 16.2389 36.5821 16.2389C37.3066 16.2389 38.031 16.2389 39.4799 16.2389C39.4799 16.2389 39.4799 16.2389 39.4799 15.5146V14.7904C40.9287 11.8934 46.724 10.4449 48.8972 9.72069C55.4169 6.82372 62.661 0.305539 70.6295 3.20251C76.4248 5.37524 82.22 8.27221 88.7397 8.99645C93.0862 9.72069 98.157 8.99645 102.503 8.99645C103.952 8.99645 105.401 8.99645 106.85 8.99645C106.126 10.4449 104.677 11.8934 103.228 14.0661H103.952C103.952 14.0661 104.677 14.0661 104.677 13.3419C107.574 11.8934 110.472 8.2722 110.472 8.2722C111.921 7.54796 113.37 6.09948 114.094 4.65099C114.818 3.92675 115.543 3.20251 116.267 3.20251C119.165 1.75402 122.787 0.305542 126.409 0.305542C130.031 0.305542 132.204 1.02979 135.102 2.47827C139.448 4.651 143.795 7.54796 148.866 8.2722C149.59 8.2722 150.314 8.27221 151.039 8.99645C152.488 9.72069 153.937 9.72069 154.661 10.4449C158.283 11.8934 161.181 14.7904 164.078 17.6874C164.078 17.6874 164.078 17.6874 164.803 18.4116C166.252 19.8601 167.7 21.3086 168.425 22.7571C170.598 24.9298 173.496 27.8268 174.22 30.7237C174.22 30.7237 174.22 31.448 174.944 31.448C169.149 29.9995 168.425 36.5177 164.078 34.3449Z" fill="#585858"/>
<path d="M69.1806 61.8661C70.6294 62.5903 72.8027 62.5903 74.2516 62.5903C74.2516 63.3146 74.2516 64.7631 74.2516 65.4873C74.2516 66.9358 74.9759 67.66 74.9759 69.1085C74.9759 70.557 74.976 72.0055 74.2516 72.7297C73.5271 73.454 72.8027 73.454 71.3539 74.1782C70.6294 74.1782 69.905 74.1782 69.1806 74.1782C69.905 70.557 69.1806 65.4873 69.1806 61.8661Z" fill="#3C3C3C"/>
<path d="M44.5507 41.5874C45.2751 40.1389 45.2752 38.6904 45.2752 37.2419C45.2752 36.5177 45.2751 38.6904 44.5507 41.5874Z" fill="#646464"/>
<path d="M132.929 72.7298C130.031 74.9025 128.582 77.0753 127.858 79.248C126.409 79.248 124.96 79.248 124.236 78.5238C120.614 76.351 124.236 71.2813 127.133 69.8329C127.858 69.1086 128.582 68.3844 130.031 68.3844C130.755 67.6601 131.48 67.6601 131.48 66.9359C132.204 65.4874 132.929 64.7632 132.929 62.5904C132.929 61.1419 132.929 58.9692 132.929 57.5207C132.929 56.0722 132.929 55.348 132.929 53.8995C128.582 52.451 125.685 48.8298 125.685 48.1056L130.755 54.6238L131.48 58.245C125.685 60.4177 119.889 61.8662 114.818 62.5904C103.952 64.7632 90.9129 65.4874 79.3224 63.3147C78.598 63.3147 72.8027 61.8662 70.6295 61.142C70.6295 61.142 70.6295 61.142 69.9051 61.142C67.7318 60.4177 69.1807 58.9692 68.4563 56.7965C67.0074 61.8662 69.1807 71.2813 70.6295 76.351C70.6295 77.0753 69.9051 77.7995 69.9051 77.7995C69.1806 78.5238 67.7319 79.248 67.0075 79.248C63.3854 79.9723 59.7634 79.9722 56.1413 79.9722C53.9681 79.9722 49.6216 80.6965 48.8972 77.7995C48.1728 76.351 48.8972 74.9025 49.6216 73.4541C50.346 72.0056 51.7949 71.2813 52.5193 70.5571C52.5193 70.5571 53.2436 70.5571 53.2436 69.8329C53.2436 69.8329 53.2436 69.8328 53.2436 69.1086C53.2436 68.3844 53.2436 68.3844 53.2436 67.6601C53.2436 66.2116 53.2437 64.7632 52.5193 62.5904C51.7949 60.4177 51.0704 58.9692 51.0704 56.7965C50.346 54.6238 50.346 52.451 49.6216 50.2783C49.6216 50.2783 49.6216 50.2783 49.6216 49.5541C48.1727 48.1056 45.9995 46.6571 44.5507 45.2086C46.7239 42.3116 45.9995 37.2419 45.9995 37.2419C45.9995 37.2419 58.3145 53.1753 85.1177 51.7268C111.921 50.2783 123.511 44.4844 123.511 44.4844C123.511 44.4844 120.614 41.5874 121.338 37.2419C126.409 40.1389 137.275 46.6571 137.275 48.8298C137.275 51.0026 140.173 66.9359 132.929 72.7298Z" fill="#4B4B4B"/>
<path d="M45.2752 36.5177C45.2752 37.9662 44.5507 39.4147 44.5507 40.1389C44.5507 40.1389 44.5507 40.8632 43.8263 40.8632C43.1018 43.0359 41.6531 44.4844 38.0311 46.6571C37.3067 47.3813 36.5822 47.3813 35.1334 47.3813C32.2357 48.1056 30.0626 47.3813 27.1649 47.3813C27.1649 50.2783 24.2672 52.451 22.094 53.8995C19.9207 54.6238 17.7476 55.348 15.5743 55.348C11.9523 55.348 9.05461 52.451 7.60579 50.2783C6.88138 48.8298 6.15703 48.1056 6.88144 46.6571C6.15703 46.6571 5.43256 45.9328 3.98374 45.2086C3.25933 44.4844 2.53501 43.7601 1.8106 43.0359L9.05469 44.4844L9.77904 45.9329C10.5034 46.6571 11.9523 48.1056 12.6767 48.1056C15.5744 48.8298 18.472 47.3813 20.6452 45.9329C22.094 45.2086 23.5429 43.0359 24.9917 42.3116C27.8893 40.8632 31.5113 41.5874 35.1334 40.1389C36.5822 39.4147 38.7554 39.4147 40.2042 37.9662C42.3774 39.4147 45.2752 37.9662 45.2752 36.5177Z" fill="#4B4B4B"/>
<path d="M9.77906 45.9328C9.77906 46.6571 9.05471 46.6571 9.05471 46.6571C8.33031 47.3813 7.60581 47.3813 7.60581 47.3813L4.70821 45.9328C1.81058 43.7601 -0.362697 40.8631 0.361713 37.2419C0.361713 35.0692 1.08621 33.6207 1.81062 31.448C1.81062 31.448 1.81055 31.448 2.53496 31.448C2.53496 31.448 3.25942 33.6207 3.25942 34.345C3.98383 35.0692 3.98385 36.5177 5.43267 37.2419C6.88149 38.6904 9.05463 38.6904 11.2279 38.6904C11.2279 42.3116 10.5035 44.4844 9.77906 45.9328Z" fill="#808080"/>
<path d="M9.77906 45.9328L9.05471 46.6571C8.3303 47.3813 7.60581 47.3813 7.60581 47.3813L4.70821 45.9328C1.81058 43.7601 -0.362697 40.8631 0.361713 37.2419C0.361713 35.0692 1.08621 33.6207 1.81062 31.448C1.08621 43.7601 9.77906 45.9328 9.77906 45.9328Z" fill="#727272"/>
</svg>
