<svg width="99" height="134" viewBox="0 0 99 134" fill="none" xmlns="http://www.w3.org/2000/svg">
<path d="M61.4804 84.9233L77.4174 70.4384C80.3151 68.2657 79.5907 63.9202 77.4174 61.7475C75.2442 60.299 72.3466 60.299 70.1734 61.7475L48.4411 81.302L61.4804 84.9233Z" fill="white"/>
<path d="M7.8741 92.89C8.59851 87.096 10.7718 81.3021 13.6694 76.2324C17.2914 71.1627 21.6379 66.8172 26.7088 63.9203L45.5434 52.3324L46.2678 53.0566C49.1655 54.5051 51.3387 56.6778 52.0631 58.8506C52.7875 61.7475 52.0631 64.6445 49.8899 68.2657L39.0237 78.4051L61.4804 84.199L81.0395 66.093C82.4883 64.6445 84.6615 63.9203 86.8347 63.9203C89.008 63.9203 91.1812 64.6445 92.63 66.093C94.8033 67.5415 95.5277 69.7142 95.5277 72.6112C95.5277 74.7839 94.8033 77.6808 93.3544 79.1293L69.4489 105.202C67.2757 108.099 63.6537 109.548 60.0316 109.548C59.3072 109.548 59.3072 109.548 58.5828 109.548L36.1261 107.375C35.4017 107.375 35.4017 107.375 34.6773 107.375C31.7796 107.375 28.882 108.099 26.7088 110.272L2.07886 131.275L7.8741 92.89Z" fill="white"/>
<path d="M45.5434 53.7808C51.3387 56.6778 51.3387 60.299 48.4411 66.093L35.4017 78.4051L62.2048 84.9233L82.4883 66.093C83.9371 64.6445 85.3859 63.9203 87.5591 63.9203C89.008 63.9203 91.1812 64.6445 91.9056 65.3687C94.8033 68.2657 95.5277 72.6112 92.63 75.5081L68.7245 101.581C66.5513 103.754 63.6536 105.202 60.756 105.202H60.0316L37.5749 103.029C36.8505 103.029 36.8505 103.029 36.1261 103.029C32.504 103.029 29.6064 104.478 26.7088 106.651L5.7009 124.757L9.32295 92.89C10.7718 81.3021 17.2915 70.4384 27.4332 64.6445L45.5434 53.7808ZM44.0946 50.1596L25.9843 61.0233C20.9135 64.6445 15.8426 68.9899 12.2206 74.0596C8.59855 79.1293 6.42531 85.6475 5.7009 92.1657L2.07886 124.032L0.630005 133.448L7.8741 126.929L28.882 108.823C31.0552 107.375 33.2284 105.926 36.1261 105.926H36.8505L59.3072 108.099C60.0316 108.099 60.0316 108.099 60.756 108.099C65.1025 108.099 68.7245 106.651 71.6222 103.029L95.5277 76.9566C97.7009 74.7839 98.4253 71.8869 98.4253 68.99C98.4253 66.093 96.9765 63.196 94.8032 61.7475C92.63 60.299 90.4568 58.8506 87.5591 58.8506C84.6615 58.8506 82.4883 59.5748 80.315 61.7475L61.4804 79.1293L43.3702 74.7839L51.3387 66.8172V66.093C53.5119 61.7475 54.2363 58.8506 53.5119 55.2293C52.7875 52.3324 50.6143 50.1596 46.9922 48.7111L44.0946 50.1596Z" fill="#A3A3A3"/>
<path d="M58.5827 60.299C58.5827 60.299 76.693 55.2293 80.315 37.8475C83.2127 21.1899 73.071 13.9475 75.2442 3.08388C58.5828 13.9475 41.1969 26.2597 58.5827 60.299Z" fill="white"/>
<path d="M58.5827 60.299C58.5827 60.299 74.5198 50.1596 73.0709 32.7778C71.6221 15.396 59.3072 11.7748 57.8584 0.911133C45.5434 16.8445 32.504 33.5021 58.5827 60.299Z" fill="#838383"/>
</svg>
