<svg width="24" height="18" viewBox="0 0 24 18" fill="none" xmlns="http://www.w3.org/2000/svg">
<path id="Vector" d="M11.8685 17.5231C11.8666 17.5231 11.8644 17.5231 11.8623 17.5231C11.1592 17.5183 4.94365 17.4609 3.18266 16.9787C1.95195 16.6438 0.980431 15.6613 0.64871 14.4152C0.187929 12.6639 0.217261 9.29213 0.220461 9.02289C0.217439 8.75491 0.187751 5.35524 0.647288 3.58954C0.647822 3.58792 0.648177 3.58612 0.64871 3.5845C0.976698 2.35259 1.97008 1.33971 3.17963 1.00388C3.18266 1.00298 3.18586 1.00226 3.18888 1.00136C4.92996 0.538113 11.1578 0.481422 11.8623 0.476562H11.8749C12.5798 0.481422 18.8119 0.538833 20.5567 1.0217C21.7842 1.35573 22.755 2.33693 23.0877 3.58144C23.5657 5.3484 23.5214 8.75545 23.5166 9.04305C23.52 9.32632 23.5479 12.6679 23.0898 14.428C23.0894 14.4298 23.0889 14.4314 23.0885 14.433C22.7566 15.6792 21.7853 16.6616 20.5532 16.9969C20.5516 16.9974 20.5498 16.9978 20.5482 16.9984C18.8073 17.4614 12.5793 17.5181 11.8749 17.5231C11.8728 17.5231 11.8707 17.5231 11.8685 17.5231ZM2.40686 4.06214C2.00226 5.6207 2.04048 8.977 2.04083 9.01083V9.03513C2.02875 9.96595 2.07123 12.6616 2.40704 13.9383C2.56988 14.5497 3.04897 15.034 3.65659 15.1993C4.95592 15.5552 10.0183 15.6671 11.8685 15.6802C13.7236 15.6671 18.7934 15.5582 20.0831 15.2166C20.6888 15.0507 21.1663 14.568 21.3302 13.9559C21.6664 12.6605 21.7085 9.978 21.6962 9.05313C21.6962 9.04341 21.6962 9.03369 21.6964 9.02397C21.7131 8.082 21.6802 5.35488 21.3318 4.0679C21.3315 4.06664 21.3311 4.06538 21.3309 4.06412C21.1674 3.45006 20.6881 2.96575 20.0805 2.80036C18.7938 2.4442 13.7232 2.33261 11.8685 2.31948C10.0147 2.33261 4.94987 2.44132 3.65624 2.78254C3.06017 2.94992 2.57023 3.4515 2.40686 4.06214ZM9.54845 12.7316V5.26796L15.9198 8.99986L9.54845 12.7316Z" fill="white"/>
</svg>
