<svg width="18" height="18" viewBox="0 0 18 18" fill="none" xmlns="http://www.w3.org/2000/svg">
<g id="XMLID_801_">
<path id="XMLID_802_" d="M4.04731 5.95407H0.617652C0.465438 5.95407 0.342102 6.07746 0.342102 6.22962V17.2477C0.342102 17.3999 0.465438 17.5232 0.617652 17.5232H4.04731C4.19953 17.5232 4.32286 17.3999 4.32286 17.2477V6.22962C4.32286 6.07746 4.19953 5.95407 4.04731 5.95407Z" fill="white"/>
<path id="XMLID_803_" d="M2.33377 0.476746C1.08585 0.476746 0.0706177 1.49088 0.0706177 2.73741C0.0706177 3.9845 1.08585 4.99902 2.33377 4.99902C3.58069 4.99902 4.5951 3.98444 4.5951 2.73741C4.59515 1.49088 3.58069 0.476746 2.33377 0.476746Z" fill="white"/>
<path id="XMLID_804_" d="M12.771 5.68021C11.3935 5.68021 10.3752 6.27236 9.7576 6.9452V6.2296C9.7576 6.07744 9.63426 5.95405 9.48205 5.95405H6.19755C6.04533 5.95405 5.922 6.07744 5.922 6.2296V17.2476C5.922 17.3998 6.04533 17.5232 6.19755 17.5232H9.61971C9.77193 17.5232 9.89526 17.3998 9.89526 17.2476V11.7963C9.89526 9.95928 10.3942 9.24362 11.6748 9.24362C13.0694 9.24362 13.1802 10.3909 13.1802 11.8908V17.2477C13.1802 17.3999 13.3035 17.5232 13.4558 17.5232H16.8792C17.0314 17.5232 17.1547 17.3999 17.1547 17.2477V11.2041C17.1547 8.47258 16.6339 5.68021 12.771 5.68021Z" fill="white"/>
</g>
</svg>
